<?xml version="1.0" encoding="utf-8"?>
<!-- Generator: Adobe Illustrator 26.0.1, SVG Export Plug-In . SVG Version: 6.00 Build 0)  -->
<svg version="1.1" xmlns="http://www.w3.org/2000/svg" xmlns:xlink="http://www.w3.org/1999/xlink" x="0px" y="0px"
	 viewBox="0 0 850 850" style="enable-background:new 0 0 850 850;" xml:space="preserve">
<style type="text/css">
	.st0{fill:#FFFFFF;}
	.st1{fill:#16142D;}
	.st2{fill:#33FFF9;}
</style>
<g id="Layer_1">
	<g>
		<g>
			<g>
				<g>
					<path class="st0" d="M3070.31-1556.59c-57.43,0-104.02,46.55-104.02,103.98c0,57.46,46.58,104.02,104.02,104.02
						c57.43,0,103.98-46.55,103.98-104.02C3174.29-1510.04,3127.74-1556.59,3070.31-1556.59z M3070.31-1394.25
						c-32.24,0-58.36-26.12-58.36-58.36c0-32.21,26.12-58.33,58.36-58.33c32.21,0,58.36,26.12,58.36,58.33
						C3128.68-1420.37,3102.52-1394.25,3070.31-1394.25z"/>
					<g>
						<path class="st0" d="M3151.46-1326.23h-94.1c-12.61,0-22.83,10.22-22.83,22.83c0,12.61,10.22,22.83,22.83,22.83h94.1
							c12.61,0,22.83-10.22,22.83-22.83C3174.29-1316.01,3164.07-1326.23,3151.46-1326.23z"/>
						<circle class="st0" cx="2989.35" cy="-1303.41" r="22.83"/>
					</g>
				</g>
			</g>
			<g>
				<path class="st0" d="M2815.61-1143.88c-8.1-8.1-12.15-18.34-12.15-30.72c0-12.49,4.16-22.84,12.6-30.94
					c8.44-8.1,18.9-12.15,31.39-12.15c9.81,0,19.08,2.91,26.31,7.56c4.18,2.69,4.82,8.57,1.46,12.23v0
					c-2.72,2.98-7.17,3.43-10.56,1.23c-5.03-3.27-10.77-4.93-17.22-4.93c-7.76,0-14.18,2.59-19.24,7.65
					c-5.06,5.06-7.65,11.48-7.65,19.24c0,7.54,2.48,13.95,7.43,19.13c5.06,5.18,11.48,7.76,19.24,7.76c7.01,0,13.94-2.42,19.13-6.2
					c1.99-1.45,3.15-3.78,3.15-6.24v-7.81h-15.7c-4.01,0-7.26-3.25-7.26-7.26v0c0-4.01,3.25-7.26,7.26-7.26h23.79
					c3.92,0,7.09,3.18,7.09,7.09v19.72c0,5.17-2.37,10.06-6.45,13.24c-9.15,7.13-19.62,10.7-31.47,10.7
					C2834.17-1131.84,2823.82-1135.89,2815.61-1143.88z"/>
				<path class="st0" d="M2901.57-1144.69v-63.56c0-4.41,3.58-7.99,7.99-7.99h0.79c4.41,0,7.99,3.58,7.99,7.99v59.19h34.21
					c4.41,0,7.99,3.58,7.99,7.99l0,0c0,4.41-3.58,7.99-7.99,7.99h-39.37C2906.77-1133.08,2901.57-1138.28,2901.57-1144.69z"/>
				<path class="st0" d="M2979.38-1216.24L2979.38-1216.24c4.63,0,8.38,3.75,8.38,8.38v43.26c0,11.14,5.96,16.77,15.75,16.77
					c9.45,0,15.53-5.96,15.53-16.77v-43.26c0-4.63,3.75-8.38,8.38-8.38h0.11c4.63,0,8.38,3.75,8.38,8.38v44.39
					c0,10.47-3.04,18.34-9.23,23.74c-6.08,5.4-13.84,8.1-23.18,8.1c-9.34,0-17.1-2.7-23.29-8.1c-6.19-5.4-9.23-13.28-9.23-23.74
					v-44.39C2970.99-1212.48,2974.75-1216.24,2979.38-1216.24z"/>
				<path class="st0" d="M3063.26-1143.66c-8.21-7.99-12.27-18.23-12.27-30.72c0-12.6,4.16-22.96,12.49-31.06
					c8.44-8.21,18.57-12.27,30.49-12.27c11.67,0,22.45,4.17,30.1,10.92c3.44,3.03,3.6,8.35,0.32,11.56l-0.17,0.17
					c-2.89,2.83-7.46,3.02-10.54,0.41c-5.46-4.62-11.71-6.96-18.8-6.96c-7.54,0-13.84,2.59-18.91,7.76
					c-5.06,5.06-7.65,11.59-7.65,19.47c0,7.65,2.48,13.95,7.54,19.02c5.06,5.06,11.36,7.54,18.9,7.54c7.38,0,13.84-2.35,19.33-7.06
					c3.05-2.62,7.55-2.64,10.52,0.07l0,0c3.48,3.17,3.42,8.67-0.13,11.76c-7.85,6.85-18.75,11.21-30.73,11.21
					C3081.71-1131.84,3071.47-1135.78,3063.26-1143.66z"/>
				<path class="st0" d="M3150.46-1144c-8.21-8.21-12.38-18.34-12.38-30.38c0-12.04,4.16-22.28,12.49-30.72
					c8.44-8.44,18.68-12.6,30.83-12.6c12.15,0,22.39,4.17,30.72,12.6c8.44,8.44,12.6,18.57,12.6,30.49s-4.16,22.06-12.6,30.38
					c-8.33,8.33-18.57,12.49-30.83,12.49C3169.02-1131.73,3158.67-1135.78,3150.46-1144z M3199.86-1193.62
					c-5.06-5.06-11.14-7.65-18.45-7.65c-7.31,0-13.39,2.59-18.45,7.65c-5.06,5.06-7.54,11.48-7.54,19.02
					c0,7.54,2.48,13.84,7.43,18.9c5.06,5.06,11.25,7.54,18.57,7.54c7.32,0,13.5-2.48,18.57-7.54c5.06-5.06,7.54-11.36,7.43-18.9
					C3207.39-1182.26,3204.92-1188.56,3199.86-1193.62z"/>
				<path class="st0" d="M3236.79-1152.2L3236.79-1152.2c2.68-3.25,7.48-3.69,10.75-1.03c4.82,3.92,10.69,5.98,16.79,5.98
					c6.86,0,11.93-3.6,11.93-8.89c0-3.38-2.48-6.3-7.54-8.67c-1.12-0.56-3.83-1.57-8.21-3.26c-4.28-1.69-7.54-3.26-9.79-4.5
					c-8.78-5.06-13.17-11.93-13.17-20.7c0-6.98,2.59-12.72,7.88-17.33c5.29-4.61,12.15-6.98,20.48-6.98c8.01,0,15.1,2.04,21.25,6.18
					c3.59,2.41,4.42,7.36,1.86,10.86l-0.05,0.07c-2.32,3.17-6.62,4.02-10.03,2.08c-4.02-2.29-8.69-3.54-12.81-3.54
					c-6.64,0-10.69,3.15-10.69,7.99c0,3.26,2.25,5.96,6.75,8.21l8.21,3.6c4.61,1.91,7.99,3.38,10.13,4.39
					c9.45,4.61,14.18,11.48,14.18,20.7c0,7.43-2.81,13.5-8.44,18.23c-5.63,4.73-12.94,7.09-22.06,7.09
					c-10.34,0-19.9-3.52-26.82-10.06C3234.47-1144.54,3234.23-1149.11,3236.79-1152.2z"/>
				<path class="st0" d="M3310.23-1144.77v-59.77c0-6.46,5.24-11.69,11.69-11.69h36.92c4.29,0,7.76,3.48,7.76,7.76l0,0
					c0,4.29-3.48,7.76-7.76,7.76H3327v17.89h28.92c4.29,0,7.76,3.48,7.76,7.76l0,0c0,4.29-3.48,7.76-7.76,7.76H3327v18.68h31.84
					c4.29,0,7.76,3.48,7.76,7.76l0,0c0,4.29-3.48,7.76-7.76,7.76h-36.92C3315.47-1133.08,3310.23-1138.32,3310.23-1144.77z"/>
				<path class="st0" d="M2817.44-1094.52L2817.44-1094.52c4.81,0,8.71,3.9,8.71,8.71v69.01c0,4.81-3.9,8.71-8.71,8.71l0,0
					c-4.81,0-8.71-3.9-8.71-8.71v-69.01C2808.72-1090.62,2812.63-1094.52,2817.44-1094.52z"/>
				<path class="st0" d="M2911.81-1094.52h2.03c4.16,0,7.52,3.37,7.52,7.52v70.85c0,4.46-3.61,8.07-8.07,8.07l0,0
					c-2.38,0-4.63-1.05-6.16-2.86l-42.38-50.13v44.92c0,4.46-3.61,8.07-8.07,8.07h-0.94c-4.46,0-8.07-3.61-8.07-8.07V-1087
					c0-4.16,3.37-7.52,7.52-7.52l0,0c2.2,0,4.29,0.96,5.72,2.64l43.37,50.81V-1087C2904.29-1091.16,2907.65-1094.52,2911.81-1094.52
					z"/>
				<path class="st0" d="M2939.75-1027.95L2939.75-1027.95c2.79-3.39,7.78-3.84,11.19-1.08c5.01,4.07,11.11,6.21,17.45,6.21
					c7.13,0,12.4-3.74,12.4-9.24c0-3.51-2.57-6.55-7.84-9.01c-1.17-0.58-3.98-1.64-8.54-3.39c-4.44-1.76-7.84-3.39-10.18-4.68
					c-9.13-5.26-13.69-12.4-13.69-21.52c0-7.25,2.69-13.22,8.19-18.02c5.5-4.79,12.63-7.25,21.29-7.25c8.25,0,15.56,2.09,21.92,6.3
					c3.82,2.53,4.82,7.7,2.11,11.4l-0.05,0.07c-2.41,3.29-6.89,4.19-10.44,2.17c-4.18-2.38-9.03-3.68-13.31-3.68
					c-6.9,0-11.11,3.28-11.11,8.3c0,3.39,2.34,6.2,7.02,8.54l8.54,3.74c4.8,1.99,8.3,3.51,10.53,4.56
					c9.83,4.8,14.74,11.93,14.74,21.52c0,7.72-2.93,14.04-8.77,18.95c-5.85,4.91-13.45,7.37-22.93,7.37c-10.81,0-20.79-3.7-28-10.56
					C2937.29-1020.07,2937.13-1024.78,2939.75-1027.95z"/>
				<path class="st0" d="M3024.82-1094.52L3024.82-1094.52c4.81,0,8.71,3.9,8.71,8.71v69.01c0,4.81-3.9,8.71-8.71,8.71l0,0
					c-4.81,0-8.71-3.9-8.71-8.71v-69.01C3016.1-1090.62,3020-1094.52,3024.82-1094.52z"/>
				<path class="st0" d="M3062.77-1019.31c-8.42-8.42-12.63-19.07-12.63-31.93c0-12.98,4.33-23.74,13.1-32.17
					c8.77-8.42,19.65-12.63,32.63-12.63c10.2,0,19.84,3.02,27.35,7.86c4.34,2.8,5.01,8.9,1.52,12.71l0,0
					c-2.83,3.09-7.46,3.57-10.97,1.28c-5.23-3.4-11.19-5.13-17.9-5.13c-8.07,0-14.74,2.69-20,7.95c-5.26,5.26-7.95,11.93-7.95,20
					c0,7.84,2.57,14.5,7.72,19.88c5.26,5.38,11.93,8.07,20,8.07c7.04,0,14-2.35,19.33-6.05c2.45-1.71,3.83-4.58,3.83-7.56v-7.44
					h-16.32c-4.17,0-7.54-3.38-7.54-7.54l0,0c0-4.17,3.38-7.55,7.54-7.55h25.08c3.88,0,7.03,3.15,7.03,7.03v21.63
					c0,4.64-1.98,9.12-5.57,12.06c-9.78,8.02-21.04,12.03-33.85,12.03C3082.07-1006.8,3071.31-1011.01,3062.77-1019.31z"/>
				<path class="st0" d="M3152.13-1016.74v-69.13c0-4.78,3.88-8.66,8.66-8.66h0c4.78,0,8.66,3.88,8.66,8.66v25.85h36.26v-25.85
					c0-4.78,3.88-8.66,8.66-8.66l0,0c4.78,0,8.66,3.88,8.66,8.66v69.13c0,4.78-3.88,8.66-8.66,8.66l0,0c-4.78,0-8.66-3.88-8.66-8.66
					v-26.55h-36.26v26.55c0,4.78-3.88,8.66-8.66,8.66h0C3156.01-1008.08,3152.13-1011.96,3152.13-1016.74z"/>
				<path class="st0" d="M3261.26-1077.8h-16.32c-4.62,0-8.36-3.74-8.36-8.36l0,0c0-4.62,3.74-8.36,8.36-8.36h50.18
					c4.62,0,8.36,3.74,8.36,8.36l0,0c0,4.62-3.74,8.36-8.36,8.36h-16.32v60.94c0,4.85-3.93,8.77-8.77,8.77l0,0
					c-4.85,0-8.77-3.93-8.77-8.77V-1077.8z"/>
				<path class="st0" d="M3312.75-1027.95L3312.75-1027.95c2.79-3.39,7.78-3.84,11.19-1.08c5.01,4.07,11.11,6.21,17.45,6.21
					c7.13,0,12.4-3.74,12.4-9.24c0-3.51-2.57-6.55-7.84-9.01c-1.17-0.58-3.98-1.64-8.54-3.39c-4.44-1.76-7.84-3.39-10.18-4.68
					c-9.13-5.26-13.69-12.4-13.69-21.52c0-7.25,2.69-13.22,8.19-18.02c5.5-4.79,12.63-7.25,21.29-7.25c8.25,0,15.56,2.09,21.92,6.3
					c3.82,2.53,4.82,7.7,2.11,11.4l-0.05,0.07c-2.41,3.29-6.89,4.19-10.44,2.17c-4.18-2.38-9.03-3.68-13.31-3.68
					c-6.9,0-11.11,3.28-11.11,8.3c0,3.39,2.34,6.2,7.02,8.54l8.54,3.74c4.8,1.99,8.3,3.51,10.53,4.56
					c9.83,4.8,14.74,11.93,14.74,21.52c0,7.72-2.93,14.04-8.77,18.95c-5.85,4.91-13.45,7.37-22.93,7.37c-10.81,0-20.79-3.7-28-10.56
					C3310.29-1020.07,3310.13-1024.78,3312.75-1027.95z"/>
			</g>
		</g>
	</g>
	<g>
		<g>
			<g>
				<g>
					<path class="st1" d="M2182.58-1556.59c-57.43,0-104.02,46.55-104.02,103.98c0,57.46,46.58,104.02,104.02,104.02
						s103.98-46.55,103.98-104.02C2286.56-1510.04,2240.01-1556.59,2182.58-1556.59z M2182.58-1394.25
						c-32.24,0-58.36-26.12-58.36-58.36c0-32.21,26.12-58.33,58.36-58.33c32.21,0,58.36,26.12,58.36,58.33
						C2240.94-1420.37,2214.79-1394.25,2182.58-1394.25z"/>
					<g>
						<path class="st1" d="M2263.73-1326.23h-94.1c-12.61,0-22.83,10.22-22.83,22.83c0,12.61,10.22,22.83,22.83,22.83h94.1
							c12.61,0,22.83-10.22,22.83-22.83C2286.55-1316.01,2276.33-1326.23,2263.73-1326.23z"/>
						<circle class="st1" cx="2101.62" cy="-1303.41" r="22.83"/>
					</g>
				</g>
			</g>
			<g>
				<path class="st1" d="M1927.87-1143.88c-8.1-8.1-12.15-18.34-12.15-30.72c0-12.49,4.16-22.84,12.6-30.94
					c8.44-8.1,18.9-12.15,31.39-12.15c9.81,0,19.08,2.91,26.31,7.56c4.18,2.69,4.82,8.57,1.46,12.23v0
					c-2.72,2.98-7.17,3.43-10.56,1.23c-5.03-3.27-10.77-4.93-17.22-4.93c-7.76,0-14.18,2.59-19.24,7.65
					c-5.06,5.06-7.65,11.48-7.65,19.24c0,7.54,2.48,13.95,7.43,19.13c5.06,5.18,11.48,7.76,19.24,7.76c7.01,0,13.94-2.42,19.13-6.2
					c1.99-1.45,3.15-3.78,3.15-6.24v-7.81h-15.7c-4.01,0-7.26-3.25-7.26-7.26v0c0-4.01,3.25-7.26,7.26-7.26h23.79
					c3.92,0,7.09,3.18,7.09,7.09v19.72c0,5.17-2.37,10.06-6.45,13.24c-9.15,7.13-19.62,10.7-31.47,10.7
					C1946.44-1131.84,1936.08-1135.89,1927.87-1143.88z"/>
				<path class="st1" d="M2013.83-1144.69v-63.56c0-4.41,3.58-7.99,7.99-7.99h0.79c4.41,0,7.99,3.58,7.99,7.99v59.19h34.21
					c4.41,0,7.99,3.58,7.99,7.99l0,0c0,4.41-3.58,7.99-7.99,7.99h-39.37C2019.03-1133.08,2013.83-1138.28,2013.83-1144.69z"/>
				<path class="st1" d="M2091.64-1216.24L2091.64-1216.24c4.63,0,8.38,3.75,8.38,8.38v43.26c0,11.14,5.96,16.77,15.75,16.77
					c9.45,0,15.53-5.96,15.53-16.77v-43.26c0-4.63,3.75-8.38,8.38-8.38h0.11c4.63,0,8.38,3.75,8.38,8.38v44.39
					c0,10.47-3.04,18.34-9.23,23.74c-6.08,5.4-13.84,8.1-23.18,8.1c-9.34,0-17.1-2.7-23.29-8.1c-6.19-5.4-9.23-13.28-9.23-23.74
					v-44.39C2083.26-1212.48,2087.01-1216.24,2091.64-1216.24z"/>
				<path class="st1" d="M2175.52-1143.66c-8.21-7.99-12.27-18.23-12.27-30.72c0-12.6,4.16-22.96,12.49-31.06
					c8.44-8.21,18.57-12.27,30.49-12.27c11.67,0,22.45,4.17,30.1,10.92c3.44,3.03,3.6,8.35,0.32,11.56l-0.17,0.17
					c-2.89,2.83-7.46,3.02-10.54,0.41c-5.45-4.62-11.71-6.96-18.8-6.96c-7.54,0-13.84,2.59-18.91,7.76
					c-5.06,5.06-7.65,11.59-7.65,19.47c0,7.65,2.48,13.95,7.54,19.02c5.06,5.06,11.36,7.54,18.9,7.54c7.38,0,13.84-2.35,19.33-7.06
					c3.05-2.62,7.55-2.64,10.52,0.07l0,0c3.48,3.17,3.42,8.67-0.13,11.76c-7.85,6.85-18.75,11.21-30.73,11.21
					C2193.97-1131.84,2183.73-1135.78,2175.52-1143.66z"/>
				<path class="st1" d="M2262.72-1144c-8.21-8.21-12.38-18.34-12.38-30.38c0-12.04,4.16-22.28,12.49-30.72
					c8.44-8.44,18.68-12.6,30.83-12.6s22.39,4.17,30.72,12.6c8.44,8.44,12.6,18.57,12.6,30.49s-4.16,22.06-12.6,30.38
					c-8.33,8.33-18.57,12.49-30.83,12.49C2281.29-1131.73,2270.93-1135.78,2262.72-1144z M2312.12-1193.62
					c-5.06-5.06-11.14-7.65-18.45-7.65c-7.31,0-13.39,2.59-18.45,7.65c-5.06,5.06-7.54,11.48-7.54,19.02
					c0,7.54,2.48,13.84,7.43,18.9c5.06,5.06,11.25,7.54,18.57,7.54c7.31,0,13.5-2.48,18.57-7.54c5.06-5.06,7.54-11.36,7.43-18.9
					C2319.66-1182.26,2317.18-1188.56,2312.12-1193.62z"/>
				<path class="st1" d="M2349.05-1152.2L2349.05-1152.2c2.68-3.25,7.48-3.69,10.75-1.03c4.82,3.92,10.69,5.98,16.79,5.98
					c6.86,0,11.93-3.6,11.93-8.89c0-3.38-2.48-6.3-7.54-8.67c-1.13-0.56-3.83-1.57-8.22-3.26c-4.28-1.69-7.54-3.26-9.79-4.5
					c-8.78-5.06-13.17-11.93-13.17-20.7c0-6.98,2.59-12.72,7.88-17.33c5.29-4.61,12.15-6.98,20.48-6.98c8.01,0,15.1,2.04,21.25,6.18
					c3.59,2.41,4.42,7.36,1.86,10.86l-0.05,0.07c-2.32,3.17-6.62,4.02-10.03,2.08c-4.02-2.29-8.69-3.54-12.81-3.54
					c-6.64,0-10.69,3.15-10.69,7.99c0,3.26,2.25,5.96,6.75,8.21l8.21,3.6c4.61,1.91,7.99,3.38,10.13,4.39
					c9.45,4.61,14.18,11.48,14.18,20.7c0,7.43-2.81,13.5-8.44,18.23c-5.63,4.73-12.94,7.09-22.06,7.09
					c-10.34,0-19.9-3.52-26.82-10.06C2346.74-1144.54,2346.5-1149.11,2349.05-1152.2z"/>
				<path class="st1" d="M2422.5-1144.77v-59.77c0-6.46,5.24-11.69,11.69-11.69h36.92c4.29,0,7.76,3.48,7.76,7.76l0,0
					c0,4.29-3.48,7.76-7.76,7.76h-31.84v17.89h28.92c4.29,0,7.76,3.48,7.76,7.76l0,0c0,4.29-3.48,7.76-7.76,7.76h-28.92v18.68h31.84
					c4.29,0,7.76,3.48,7.76,7.76l0,0c0,4.29-3.48,7.76-7.76,7.76h-36.92C2427.73-1133.08,2422.5-1138.32,2422.5-1144.77z"/>
				<path class="st1" d="M1929.7-1094.52L1929.7-1094.52c4.81,0,8.71,3.9,8.71,8.71v69.01c0,4.81-3.9,8.71-8.71,8.71l0,0
					c-4.81,0-8.71-3.9-8.71-8.71v-69.01C1920.99-1090.62,1924.89-1094.52,1929.7-1094.52z"/>
				<path class="st1" d="M2024.07-1094.52h2.03c4.16,0,7.52,3.37,7.52,7.52v70.85c0,4.46-3.61,8.07-8.07,8.07l0,0
					c-2.38,0-4.63-1.05-6.16-2.86l-42.38-50.13v44.92c0,4.46-3.61,8.07-8.07,8.07h-0.94c-4.46,0-8.07-3.61-8.07-8.07V-1087
					c0-4.16,3.37-7.52,7.52-7.52l0,0c2.2,0,4.29,0.96,5.72,2.64l43.37,50.81V-1087C2016.55-1091.16,2019.92-1094.52,2024.07-1094.52
					z"/>
				<path class="st1" d="M2052.01-1027.95L2052.01-1027.95c2.79-3.39,7.78-3.84,11.19-1.08c5.01,4.07,11.11,6.21,17.45,6.21
					c7.13,0,12.4-3.74,12.4-9.24c0-3.51-2.57-6.55-7.84-9.01c-1.17-0.58-3.98-1.64-8.54-3.39c-4.44-1.76-7.84-3.39-10.18-4.68
					c-9.13-5.26-13.69-12.4-13.69-21.52c0-7.25,2.69-13.22,8.19-18.02c5.5-4.79,12.63-7.25,21.29-7.25c8.25,0,15.56,2.09,21.92,6.3
					c3.82,2.53,4.82,7.7,2.11,11.4l-0.05,0.07c-2.41,3.29-6.89,4.19-10.44,2.17c-4.18-2.38-9.03-3.68-13.31-3.68
					c-6.9,0-11.11,3.28-11.11,8.3c0,3.39,2.34,6.2,7.02,8.54l8.54,3.74c4.8,1.99,8.3,3.51,10.53,4.56
					c9.83,4.8,14.74,11.93,14.74,21.52c0,7.72-2.93,14.04-8.77,18.95c-5.85,4.91-13.45,7.37-22.93,7.37c-10.81,0-20.79-3.7-28-10.56
					C2049.56-1020.07,2049.4-1024.78,2052.01-1027.95z"/>
				<path class="st1" d="M2137.08-1094.52L2137.08-1094.52c4.81,0,8.71,3.9,8.71,8.71v69.01c0,4.81-3.9,8.71-8.71,8.71h0
					c-4.81,0-8.71-3.9-8.71-8.71v-69.01C2128.37-1090.62,2132.27-1094.52,2137.08-1094.52z"/>
				<path class="st1" d="M2175.03-1019.31c-8.42-8.42-12.63-19.07-12.63-31.93c0-12.98,4.33-23.74,13.1-32.17
					c8.77-8.42,19.65-12.63,32.63-12.63c10.2,0,19.84,3.02,27.35,7.86c4.34,2.8,5.01,8.9,1.52,12.71l0,0
					c-2.83,3.09-7.46,3.57-10.97,1.28c-5.23-3.4-11.19-5.13-17.9-5.13c-8.07,0-14.74,2.69-20,7.95c-5.26,5.26-7.95,11.93-7.95,20
					c0,7.84,2.57,14.5,7.72,19.88c5.26,5.38,11.93,8.07,20,8.07c7.04,0,14-2.35,19.33-6.05c2.45-1.71,3.83-4.58,3.83-7.56v-7.44
					h-16.32c-4.17,0-7.54-3.38-7.54-7.54l0,0c0-4.17,3.38-7.55,7.54-7.55h25.08c3.88,0,7.03,3.15,7.03,7.03v21.63
					c0,4.64-1.98,9.12-5.57,12.06c-9.78,8.02-21.04,12.03-33.85,12.03C2194.34-1006.8,2183.57-1011.01,2175.03-1019.31z"/>
				<path class="st1" d="M2264.4-1016.74v-69.13c0-4.78,3.88-8.66,8.66-8.66l0,0c4.78,0,8.66,3.88,8.66,8.66v25.85h36.26v-25.85
					c0-4.78,3.88-8.66,8.66-8.66l0,0c4.78,0,8.66,3.88,8.66,8.66v69.13c0,4.78-3.88,8.66-8.66,8.66l0,0c-4.78,0-8.66-3.88-8.66-8.66
					v-26.55h-36.26v26.55c0,4.78-3.88,8.66-8.66,8.66l0,0C2268.27-1008.08,2264.4-1011.96,2264.4-1016.74z"/>
				<path class="st1" d="M2373.52-1077.8h-16.32c-4.62,0-8.36-3.74-8.36-8.36l0,0c0-4.62,3.74-8.36,8.36-8.36h50.18
					c4.62,0,8.36,3.74,8.36,8.36l0,0c0,4.62-3.74,8.36-8.36,8.36h-16.32v60.94c0,4.85-3.93,8.77-8.77,8.77l0,0
					c-4.85,0-8.77-3.93-8.77-8.77V-1077.8z"/>
				<path class="st1" d="M2425.01-1027.95L2425.01-1027.95c2.79-3.39,7.78-3.84,11.19-1.08c5.01,4.07,11.11,6.21,17.45,6.21
					c7.13,0,12.4-3.74,12.4-9.24c0-3.51-2.57-6.55-7.84-9.01c-1.17-0.58-3.98-1.64-8.54-3.39c-4.44-1.76-7.84-3.39-10.18-4.68
					c-9.13-5.26-13.69-12.4-13.69-21.52c0-7.25,2.69-13.22,8.19-18.02c5.5-4.79,12.63-7.25,21.29-7.25c8.25,0,15.56,2.09,21.92,6.3
					c3.82,2.53,4.82,7.7,2.11,11.4l-0.05,0.07c-2.41,3.29-6.89,4.19-10.44,2.17c-4.18-2.38-9.03-3.68-13.31-3.68
					c-6.9,0-11.11,3.28-11.11,8.3c0,3.39,2.34,6.2,7.02,8.54l8.54,3.74c4.8,1.99,8.3,3.51,10.53,4.56
					c9.83,4.8,14.74,11.93,14.74,21.52c0,7.72-2.93,14.04-8.77,18.95c-5.85,4.91-13.45,7.37-22.93,7.37c-10.81,0-20.79-3.7-28-10.56
					C2422.56-1020.07,2422.4-1024.78,2425.01-1027.95z"/>
			</g>
		</g>
	</g>
	<g>
		<g>
			<g>
				<path class="st2" d="M1294.84-1556.59c-57.43,0-104.02,46.55-104.02,103.98c0,57.46,46.58,104.02,104.02,104.02
					c57.43,0,103.98-46.55,103.98-104.02C1398.82-1510.04,1352.27-1556.59,1294.84-1556.59z M1294.84-1394.25
					c-32.24,0-58.36-26.12-58.36-58.36c0-32.21,26.12-58.33,58.36-58.33c32.21,0,58.36,26.12,58.36,58.33
					C1353.2-1420.37,1327.05-1394.25,1294.84-1394.25z"/>
				<g>
					<path class="st2" d="M1375.99-1326.23h-94.1c-12.61,0-22.83,10.22-22.83,22.83c0,12.61,10.22,22.83,22.83,22.83h94.1
						c12.61,0,22.83-10.22,22.83-22.83C1398.82-1316.01,1388.6-1326.23,1375.99-1326.23z"/>
					<circle class="st2" cx="1213.88" cy="-1303.41" r="22.83"/>
				</g>
			</g>
		</g>
		<g>
			<path class="st0" d="M1040.13-1143.88c-8.1-8.1-12.15-18.34-12.15-30.72c0-12.49,4.16-22.84,12.6-30.94
				c8.44-8.1,18.9-12.15,31.39-12.15c9.81,0,19.08,2.91,26.31,7.56c4.18,2.69,4.82,8.57,1.46,12.23v0
				c-2.72,2.98-7.17,3.43-10.56,1.23c-5.03-3.27-10.77-4.93-17.22-4.93c-7.76,0-14.18,2.59-19.24,7.65
				c-5.06,5.06-7.65,11.48-7.65,19.24c0,7.54,2.48,13.95,7.43,19.13c5.06,5.18,11.48,7.76,19.24,7.76c7.01,0,13.94-2.42,19.13-6.2
				c1.99-1.45,3.15-3.78,3.15-6.24l0-7.81h-15.7c-4.01,0-7.26-3.25-7.26-7.26v0c0-4.01,3.25-7.26,7.26-7.26h23.79
				c3.92,0,7.09,3.18,7.09,7.09v19.72c0,5.17-2.37,10.06-6.45,13.24c-9.15,7.13-19.62,10.7-31.47,10.7
				C1058.7-1131.84,1048.35-1135.89,1040.13-1143.88z"/>
			<path class="st0" d="M1126.1-1144.69v-63.56c0-4.41,3.58-7.99,7.99-7.99h0.79c4.41,0,7.99,3.58,7.99,7.99v59.19h34.21
				c4.41,0,7.99,3.58,7.99,7.99l0,0c0,4.41-3.58,7.99-7.99,7.99h-39.37C1131.29-1133.08,1126.1-1138.28,1126.1-1144.69z"/>
			<path class="st0" d="M1203.9-1216.24L1203.9-1216.24c4.63,0,8.38,3.75,8.38,8.38v43.26c0,11.14,5.96,16.77,15.75,16.77
				c9.45,0,15.53-5.96,15.53-16.77v-43.26c0-4.63,3.75-8.38,8.38-8.38h0.11c4.63,0,8.38,3.75,8.38,8.38v44.39
				c0,10.47-3.04,18.34-9.23,23.74c-6.08,5.4-13.84,8.1-23.18,8.1c-9.34,0-17.1-2.7-23.29-8.1c-6.19-5.4-9.23-13.28-9.23-23.74
				v-44.39C1195.52-1212.48,1199.27-1216.24,1203.9-1216.24z"/>
			<path class="st0" d="M1287.78-1143.66c-8.21-7.99-12.27-18.23-12.27-30.72c0-12.6,4.16-22.96,12.49-31.06
				c8.44-8.21,18.57-12.27,30.49-12.27c11.67,0,22.45,4.17,30.1,10.92c3.44,3.03,3.6,8.35,0.32,11.56l-0.17,0.17
				c-2.89,2.83-7.46,3.02-10.54,0.41c-5.45-4.62-11.71-6.96-18.8-6.96c-7.54,0-13.84,2.59-18.91,7.76
				c-5.06,5.06-7.65,11.59-7.65,19.47c0,7.65,2.48,13.95,7.54,19.02c5.06,5.06,11.36,7.54,18.9,7.54c7.38,0,13.84-2.35,19.33-7.06
				c3.05-2.62,7.55-2.64,10.52,0.07l0,0c3.48,3.17,3.42,8.67-0.13,11.76c-7.85,6.85-18.75,11.21-30.73,11.21
				C1306.24-1131.84,1296-1135.78,1287.78-1143.66z"/>
			<path class="st0" d="M1374.99-1144c-8.21-8.21-12.38-18.34-12.38-30.38c0-12.04,4.16-22.28,12.49-30.72
				c8.44-8.44,18.68-12.6,30.83-12.6s22.39,4.17,30.72,12.6c8.44,8.44,12.6,18.57,12.6,30.49s-4.16,22.06-12.6,30.38
				c-8.33,8.33-18.57,12.49-30.83,12.49C1393.55-1131.73,1383.2-1135.78,1374.99-1144z M1424.38-1193.62
				c-5.06-5.06-11.14-7.65-18.45-7.65c-7.31,0-13.39,2.59-18.45,7.65c-5.06,5.06-7.54,11.48-7.54,19.02c0,7.54,2.48,13.84,7.43,18.9
				c5.06,5.06,11.25,7.54,18.57,7.54c7.32,0,13.5-2.48,18.57-7.54c5.06-5.06,7.54-11.36,7.43-18.9
				C1431.92-1182.26,1429.45-1188.56,1424.38-1193.62z"/>
			<path class="st0" d="M1461.31-1152.2L1461.31-1152.2c2.68-3.25,7.48-3.69,10.75-1.03c4.82,3.92,10.69,5.98,16.79,5.98
				c6.86,0,11.93-3.6,11.93-8.89c0-3.38-2.48-6.3-7.54-8.67c-1.13-0.56-3.83-1.57-8.21-3.26c-4.28-1.69-7.54-3.26-9.79-4.5
				c-8.78-5.06-13.17-11.93-13.17-20.7c0-6.98,2.59-12.72,7.88-17.33s12.15-6.98,20.48-6.98c8.01,0,15.1,2.04,21.25,6.18
				c3.59,2.41,4.42,7.36,1.86,10.86l-0.05,0.07c-2.32,3.17-6.62,4.02-10.03,2.08c-4.02-2.29-8.69-3.54-12.81-3.54
				c-6.64,0-10.69,3.15-10.69,7.99c0,3.26,2.25,5.96,6.75,8.21l8.21,3.6c4.61,1.91,7.99,3.38,10.13,4.39
				c9.45,4.61,14.18,11.48,14.18,20.7c0,7.43-2.81,13.5-8.44,18.23c-5.63,4.73-12.94,7.09-22.06,7.09
				c-10.34,0-19.9-3.52-26.82-10.06C1459-1144.54,1458.76-1149.11,1461.31-1152.2z"/>
			<path class="st0" d="M1534.76-1144.77v-59.77c0-6.46,5.24-11.69,11.69-11.69h36.92c4.29,0,7.76,3.48,7.76,7.76l0,0
				c0,4.29-3.48,7.76-7.76,7.76h-31.84v17.89h28.92c4.29,0,7.76,3.48,7.76,7.76l0,0c0,4.29-3.48,7.76-7.76,7.76h-28.92v18.68h31.84
				c4.29,0,7.76,3.48,7.76,7.76l0,0c0,4.29-3.48,7.76-7.76,7.76h-36.92C1539.99-1133.08,1534.76-1138.32,1534.76-1144.77z"/>
			<path class="st0" d="M1041.97-1094.52L1041.97-1094.52c4.81,0,8.71,3.9,8.71,8.71v69.01c0,4.81-3.9,8.71-8.71,8.71h0
				c-4.81,0-8.71-3.9-8.71-8.71v-69.01C1033.25-1090.62,1037.15-1094.52,1041.97-1094.52z"/>
			<path class="st0" d="M1136.34-1094.52h2.03c4.16,0,7.52,3.37,7.52,7.52v70.85c0,4.46-3.61,8.07-8.07,8.07l0,0
				c-2.37,0-4.63-1.05-6.16-2.86l-42.38-50.13v44.92c0,4.46-3.61,8.07-8.07,8.07h-0.94c-4.46,0-8.07-3.61-8.07-8.07V-1087
				c0-4.16,3.37-7.52,7.52-7.52l0,0c2.2,0,4.29,0.96,5.72,2.64l43.37,50.81V-1087C1128.81-1091.16,1132.18-1094.52,1136.34-1094.52z
				"/>
			<path class="st0" d="M1164.27-1027.95L1164.27-1027.95c2.79-3.39,7.78-3.84,11.19-1.08c5.01,4.07,11.11,6.21,17.45,6.21
				c7.13,0,12.4-3.74,12.4-9.24c0-3.51-2.57-6.55-7.84-9.01c-1.17-0.58-3.98-1.64-8.54-3.39c-4.44-1.76-7.84-3.39-10.18-4.68
				c-9.13-5.26-13.69-12.4-13.69-21.52c0-7.25,2.69-13.22,8.19-18.02c5.5-4.79,12.63-7.25,21.29-7.25c8.25,0,15.56,2.09,21.92,6.3
				c3.82,2.53,4.82,7.7,2.11,11.4l-0.05,0.07c-2.41,3.29-6.89,4.19-10.44,2.17c-4.18-2.38-9.03-3.68-13.31-3.68
				c-6.9,0-11.11,3.28-11.11,8.3c0,3.39,2.34,6.2,7.02,8.54l8.54,3.74c4.8,1.99,8.3,3.51,10.53,4.56
				c9.83,4.8,14.74,11.93,14.74,21.52c0,7.72-2.93,14.04-8.77,18.95c-5.85,4.91-13.45,7.37-22.93,7.37c-10.81,0-20.79-3.7-28-10.56
				C1161.82-1020.07,1161.66-1024.78,1164.27-1027.95z"/>
			<path class="st0" d="M1249.34-1094.52L1249.34-1094.52c4.81,0,8.71,3.9,8.71,8.71v69.01c0,4.81-3.9,8.71-8.71,8.71l0,0
				c-4.81,0-8.71-3.9-8.71-8.71v-69.01C1240.63-1090.62,1244.53-1094.52,1249.34-1094.52z"/>
			<path class="st0" d="M1287.3-1019.31c-8.42-8.42-12.63-19.07-12.63-31.93c0-12.98,4.33-23.74,13.1-32.17
				c8.77-8.42,19.65-12.63,32.63-12.63c10.2,0,19.84,3.02,27.35,7.86c4.34,2.8,5.01,8.9,1.52,12.71l0,0
				c-2.83,3.09-7.46,3.57-10.97,1.28c-5.23-3.4-11.19-5.13-17.9-5.13c-8.07,0-14.74,2.69-20,7.95c-5.26,5.26-7.95,11.93-7.95,20
				c0,7.84,2.57,14.5,7.72,19.88c5.26,5.38,11.93,8.07,20,8.07c7.04,0,14-2.35,19.33-6.05c2.45-1.71,3.83-4.58,3.83-7.56v-7.44
				h-16.32c-4.17,0-7.54-3.38-7.54-7.54l0,0c0-4.17,3.38-7.55,7.54-7.55h25.08c3.88,0,7.03,3.15,7.03,7.03v21.63
				c0,4.64-1.98,9.12-5.57,12.06c-9.78,8.02-21.04,12.03-33.85,12.03C1306.6-1006.8,1295.84-1011.01,1287.3-1019.31z"/>
			<path class="st0" d="M1376.66-1016.74v-69.13c0-4.78,3.88-8.66,8.66-8.66l0,0c4.78,0,8.66,3.88,8.66,8.66v25.85h36.26v-25.85
				c0-4.78,3.88-8.66,8.66-8.66h0c4.78,0,8.66,3.88,8.66,8.66v69.13c0,4.78-3.88,8.66-8.66,8.66h0c-4.78,0-8.66-3.88-8.66-8.66
				v-26.55h-36.26v26.55c0,4.78-3.88,8.66-8.66,8.66l0,0C1380.54-1008.08,1376.66-1011.96,1376.66-1016.74z"/>
			<path class="st0" d="M1485.79-1077.8h-16.32c-4.62,0-8.36-3.74-8.36-8.36l0,0c0-4.62,3.74-8.36,8.36-8.36h50.18
				c4.62,0,8.36,3.74,8.36,8.36l0,0c0,4.62-3.74,8.36-8.36,8.36h-16.32v60.94c0,4.85-3.93,8.77-8.77,8.77l0,0
				c-4.85,0-8.77-3.93-8.77-8.77V-1077.8z"/>
			<path class="st0" d="M1537.28-1027.95L1537.28-1027.95c2.79-3.39,7.78-3.84,11.19-1.08c5.01,4.07,11.11,6.21,17.45,6.21
				c7.13,0,12.4-3.74,12.4-9.24c0-3.51-2.57-6.55-7.84-9.01c-1.17-0.58-3.98-1.64-8.54-3.39c-4.44-1.76-7.84-3.39-10.18-4.68
				c-9.13-5.26-13.69-12.4-13.69-21.52c0-7.25,2.69-13.22,8.19-18.02c5.5-4.79,12.63-7.25,21.29-7.25c8.25,0,15.56,2.09,21.92,6.3
				c3.82,2.53,4.82,7.7,2.11,11.4l-0.05,0.07c-2.41,3.29-6.89,4.19-10.44,2.17c-4.18-2.38-9.03-3.68-13.31-3.68
				c-6.9,0-11.11,3.28-11.11,8.3c0,3.39,2.34,6.2,7.02,8.54l8.54,3.74c4.8,1.99,8.3,3.51,10.53,4.56
				c9.83,4.8,14.74,11.93,14.74,21.52c0,7.72-2.93,14.04-8.77,18.95c-5.85,4.91-13.45,7.37-22.93,7.37c-10.81,0-20.79-3.7-28-10.56
				C1534.82-1020.07,1534.66-1024.78,1537.28-1027.95z"/>
		</g>
	</g>
	<g>
		<g>
			<g>
				<path class="st0" d="M1850.51-759.05c-135.5,0-245.4,109.83-245.4,245.32c0,135.58,109.91,245.4,245.4,245.4
					c135.5,0,245.32-109.83,245.32-245.4C2095.84-649.23,1986.01-759.05,1850.51-759.05z M1850.51-376.04
					c-76.07,0-137.7-61.63-137.7-137.7c0-75.99,61.63-137.62,137.7-137.62c75.99,0,137.7,61.63,137.7,137.62
					C1988.21-437.66,1926.5-376.04,1850.51-376.04z"/>
				<g>
					<path class="st0" d="M2041.97-215.57h-222c-29.74,0-53.85,24.11-53.85,53.85s24.11,53.85,53.85,53.85h222
						c29.74,0,53.85-24.11,53.85-53.85S2071.71-215.57,2041.97-215.57z"/>
					<circle class="st0" cx="1659.51" cy="-161.72" r="53.85"/>
				</g>
			</g>
		</g>
	</g>
	<g>
		<g>
			<g>
				<path class="st1" d="M1096.94-759.05c-135.5,0-245.4,109.83-245.4,245.32c0,135.58,109.91,245.4,245.4,245.4
					c135.5,0,245.32-109.83,245.32-245.4C1342.26-649.23,1232.44-759.05,1096.94-759.05z M1096.94-376.04
					c-76.07,0-137.7-61.63-137.7-137.7c0-75.99,61.63-137.62,137.7-137.62c75.99,0,137.7,61.63,137.7,137.62
					C1234.64-437.66,1172.93-376.04,1096.94-376.04z"/>
				<g>
					<path class="st1" d="M1288.4-215.57h-222c-29.74,0-53.85,24.11-53.85,53.85s24.11,53.85,53.85,53.85h222
						c29.74,0,53.85-24.11,53.85-53.85S1318.14-215.57,1288.4-215.57z"/>
					<circle class="st1" cx="905.94" cy="-161.72" r="53.85"/>
				</g>
			</g>
		</g>
	</g>
	<g>
		<g>
			<g>
				<path class="st2" d="M350.04-759.05c-135.5,0-245.4,109.83-245.4,245.32c0,135.58,109.91,245.4,245.4,245.4
					c135.5,0,245.32-109.83,245.32-245.4C595.36-649.23,485.54-759.05,350.04-759.05z M350.04-376.04
					c-76.07,0-137.7-61.63-137.7-137.7c0-75.99,61.63-137.62,137.7-137.62c75.99,0,137.7,61.63,137.7,137.62
					C487.73-437.66,426.03-376.04,350.04-376.04z"/>
				<g>
					<path class="st2" d="M541.5-215.57h-222c-29.74,0-53.85,24.11-53.85,53.85s24.11,53.85,53.85,53.85h222
						c29.74,0,53.85-24.11,53.85-53.85S571.24-215.57,541.5-215.57z"/>
					<circle class="st2" cx="159.04" cy="-161.72" r="53.85"/>
				</g>
			</g>
		</g>
	</g>
	<rect x="877.03" y="-8.57" class="st2" width="871.41" height="867.15"/>
	<g>
		<g>
			<g>
				<g>
					<path class="st1" d="M1312.77,169.12c-103.18,0-186.87,83.63-186.87,186.81c0,103.24,83.69,186.87,186.87,186.87
						c103.18,0,186.81-83.63,186.81-186.87C1499.57,252.75,1415.94,169.12,1312.77,169.12z M1312.77,460.78
						c-57.92,0-104.85-46.93-104.85-104.85c0-57.87,46.93-104.79,104.85-104.79c57.86,0,104.85,46.93,104.85,104.79
						C1417.62,413.85,1370.63,460.78,1312.77,460.78z"/>
					<g>
						<path class="st1" d="M1458.56,582.96h-169.05c-22.65,0-41.01,18.36-41.01,41.01s18.36,41.01,41.01,41.01h169.05
							c22.65,0,41.01-18.36,41.01-41.01S1481.21,582.96,1458.56,582.96z"/>
						<circle class="st1" cx="1167.33" cy="623.97" r="41.01"/>
					</g>
				</g>
			</g>
		</g>
	</g>
	<rect x="-10.7" y="-8.57" class="st1" width="871.41" height="867.15"/>
	<g>
		<g>
			<g>
				<path class="st2" d="M425.03,169.12c-103.18,0-186.87,83.63-186.87,186.81c0,103.24,83.69,186.87,186.87,186.87
					c103.18,0,186.81-83.63,186.81-186.87C611.84,252.75,528.21,169.12,425.03,169.12z M425.03,460.78
					c-57.92,0-104.85-46.93-104.85-104.85c0-57.87,46.93-104.79,104.85-104.79c57.87,0,104.85,46.93,104.85,104.79
					C529.88,413.85,482.89,460.78,425.03,460.78z"/>
				<g>
					<path class="st2" d="M570.82,582.96H401.78c-22.65,0-41.01,18.36-41.01,41.01s18.36,41.01,41.01,41.01h169.05
						c22.65,0,41.01-18.36,41.01-41.01S593.47,582.96,570.82,582.96z"/>
					<circle class="st2" cx="279.59" cy="623.97" r="41.01"/>
				</g>
			</g>
		</g>
	</g>
	<rect x="-9.58" y="-1695.05" class="st1" width="869.17" height="826.84"/>
	<g>
		<g>
			<g>
				<path class="st2" d="M407.1-1556.59c-57.43,0-104.02,46.55-104.02,103.98c0,57.46,46.58,104.02,104.02,104.02
					c57.43,0,103.98-46.55,103.98-104.02C511.09-1510.04,464.53-1556.59,407.1-1556.59z M407.1-1394.25
					c-32.24,0-58.36-26.12-58.36-58.36c0-32.21,26.12-58.33,58.36-58.33c32.21,0,58.36,26.12,58.36,58.33
					C465.47-1420.37,439.31-1394.25,407.1-1394.25z"/>
				<g>
					<path class="st2" d="M488.26-1326.23h-94.1c-12.61,0-22.83,10.22-22.83,22.83c0,12.61,10.22,22.83,22.83,22.83h94.1
						c12.61,0,22.83-10.22,22.83-22.83C511.08-1316.01,500.86-1326.23,488.26-1326.23z"/>
					<circle class="st2" cx="326.15" cy="-1303.41" r="22.83"/>
				</g>
			</g>
		</g>
		<g>
			<path class="st0" d="M152.4-1143.88c-8.1-8.1-12.15-18.34-12.15-30.72c0-12.49,4.16-22.84,12.6-30.94
				c8.44-8.1,18.9-12.15,31.39-12.15c9.81,0,19.08,2.91,26.31,7.56c4.18,2.69,4.82,8.57,1.46,12.23l0,0
				c-2.72,2.98-7.17,3.43-10.56,1.23c-5.03-3.27-10.77-4.93-17.22-4.93c-7.76,0-14.18,2.59-19.24,7.65
				c-5.06,5.06-7.65,11.48-7.65,19.24c0,7.54,2.48,13.95,7.43,19.13c5.06,5.18,11.48,7.76,19.24,7.76c7.01,0,13.94-2.42,19.13-6.2
				c1.99-1.45,3.15-3.78,3.15-6.24l0-7.81h-15.7c-4.01,0-7.26-3.25-7.26-7.26v0c0-4.01,3.25-7.26,7.26-7.26h23.79
				c3.92,0,7.09,3.18,7.09,7.09v19.72c0,5.17-2.37,10.06-6.45,13.24c-9.15,7.13-19.62,10.7-31.47,10.7
				C170.96-1131.84,160.61-1135.89,152.4-1143.88z"/>
			<path class="st0" d="M238.36-1144.69v-63.56c0-4.41,3.58-7.99,7.99-7.99h0.79c4.41,0,7.99,3.58,7.99,7.99v59.19h34.21
				c4.41,0,7.99,3.58,7.99,7.99l0,0c0,4.41-3.58,7.99-7.99,7.99h-39.37C243.56-1133.08,238.36-1138.28,238.36-1144.69z"/>
			<path class="st0" d="M316.17-1216.24L316.17-1216.24c4.63,0,8.38,3.75,8.38,8.38v43.26c0,11.14,5.96,16.77,15.75,16.77
				c9.45,0,15.53-5.96,15.53-16.77v-43.26c0-4.63,3.75-8.38,8.38-8.38h0.11c4.63,0,8.38,3.75,8.38,8.38v44.39
				c0,10.47-3.04,18.34-9.23,23.74c-6.08,5.4-13.84,8.1-23.18,8.1c-9.34,0-17.1-2.7-23.29-8.1c-6.19-5.4-9.23-13.28-9.23-23.74
				v-44.39C307.78-1212.48,311.54-1216.24,316.17-1216.24z"/>
			<path class="st0" d="M400.05-1143.66c-8.21-7.99-12.27-18.23-12.27-30.72c0-12.6,4.16-22.96,12.49-31.06
				c8.44-8.21,18.57-12.27,30.49-12.27c11.67,0,22.45,4.17,30.1,10.92c3.44,3.03,3.6,8.35,0.32,11.56l-0.17,0.17
				c-2.89,2.83-7.46,3.02-10.54,0.41c-5.46-4.62-11.71-6.96-18.8-6.96c-7.54,0-13.84,2.59-18.91,7.76
				c-5.06,5.06-7.65,11.59-7.65,19.47c0,7.65,2.48,13.95,7.54,19.02c5.06,5.06,11.36,7.54,18.9,7.54c7.38,0,13.84-2.35,19.33-7.06
				c3.05-2.62,7.55-2.64,10.52,0.07h0c3.48,3.17,3.42,8.67-0.13,11.76c-7.85,6.85-18.75,11.21-30.73,11.21
				C418.5-1131.84,408.26-1135.78,400.05-1143.66z"/>
			<path class="st0" d="M487.25-1144c-8.21-8.21-12.38-18.34-12.38-30.38c0-12.04,4.16-22.28,12.49-30.72
				c8.44-8.44,18.68-12.6,30.83-12.6c12.15,0,22.39,4.17,30.72,12.6c8.44,8.44,12.6,18.57,12.6,30.49s-4.16,22.06-12.6,30.38
				c-8.33,8.33-18.57,12.49-30.83,12.49S495.46-1135.78,487.25-1144z M536.65-1193.62c-5.06-5.06-11.14-7.65-18.45-7.65
				c-7.31,0-13.39,2.59-18.45,7.65c-5.06,5.06-7.54,11.48-7.54,19.02c0,7.54,2.48,13.84,7.43,18.9c5.06,5.06,11.25,7.54,18.57,7.54
				c7.32,0,13.5-2.48,18.57-7.54c5.06-5.06,7.54-11.36,7.43-18.9C544.19-1182.26,541.71-1188.56,536.65-1193.62z"/>
			<path class="st0" d="M573.58-1152.2L573.58-1152.2c2.68-3.25,7.48-3.69,10.75-1.03c4.82,3.92,10.69,5.98,16.79,5.98
				c6.86,0,11.93-3.6,11.93-8.89c0-3.38-2.48-6.3-7.54-8.67c-1.13-0.56-3.83-1.57-8.21-3.26c-4.28-1.69-7.54-3.26-9.79-4.5
				c-8.78-5.06-13.17-11.93-13.17-20.7c0-6.98,2.59-12.72,7.88-17.33s12.15-6.98,20.48-6.98c8.01,0,15.1,2.04,21.25,6.18
				c3.59,2.41,4.42,7.36,1.86,10.86l-0.05,0.07c-2.32,3.17-6.62,4.02-10.03,2.08c-4.02-2.29-8.69-3.54-12.81-3.54
				c-6.64,0-10.69,3.15-10.69,7.99c0,3.26,2.25,5.96,6.75,8.21l8.21,3.6c4.61,1.91,7.99,3.38,10.13,4.39
				c9.45,4.61,14.18,11.48,14.18,20.7c0,7.43-2.81,13.5-8.44,18.23c-5.63,4.73-12.94,7.09-22.06,7.09
				c-10.34,0-19.9-3.52-26.82-10.06C571.27-1144.54,571.02-1149.11,573.58-1152.2z"/>
			<path class="st0" d="M647.02-1144.77v-59.77c0-6.46,5.24-11.69,11.69-11.69h36.92c4.29,0,7.76,3.48,7.76,7.76l0,0
				c0,4.29-3.48,7.76-7.76,7.76h-31.84v17.89h28.92c4.29,0,7.76,3.48,7.76,7.76l0,0c0,4.29-3.48,7.76-7.76,7.76h-28.92v18.68h31.84
				c4.29,0,7.76,3.48,7.76,7.76l0,0c0,4.29-3.48,7.76-7.76,7.76h-36.92C652.26-1133.08,647.02-1138.32,647.02-1144.77z"/>
			<path class="st0" d="M154.23-1094.52L154.23-1094.52c4.81,0,8.71,3.9,8.71,8.71v69.01c0,4.81-3.9,8.71-8.71,8.71h0
				c-4.81,0-8.71-3.9-8.71-8.71v-69.01C145.52-1090.62,149.42-1094.52,154.23-1094.52z"/>
			<path class="st0" d="M248.6-1094.52h2.03c4.16,0,7.52,3.37,7.52,7.52v70.85c0,4.46-3.61,8.07-8.07,8.07h0
				c-2.37,0-4.63-1.05-6.16-2.86l-42.38-50.13v44.92c0,4.46-3.61,8.07-8.07,8.07h-0.94c-4.46,0-8.07-3.61-8.07-8.07V-1087
				c0-4.16,3.37-7.52,7.52-7.52h0c2.2,0,4.29,0.96,5.72,2.64l43.37,50.81V-1087C241.08-1091.16,244.45-1094.52,248.6-1094.52z"/>
			<path class="st0" d="M276.54-1027.95L276.54-1027.95c2.79-3.39,7.78-3.84,11.19-1.08c5.01,4.07,11.11,6.21,17.45,6.21
				c7.13,0,12.4-3.74,12.4-9.24c0-3.51-2.57-6.55-7.84-9.01c-1.17-0.58-3.98-1.64-8.54-3.39c-4.44-1.76-7.84-3.39-10.18-4.68
				c-9.13-5.26-13.69-12.4-13.69-21.52c0-7.25,2.69-13.22,8.19-18.02c5.5-4.79,12.63-7.25,21.29-7.25c8.25,0,15.56,2.09,21.92,6.3
				c3.82,2.53,4.82,7.7,2.11,11.4l-0.05,0.07c-2.41,3.29-6.89,4.19-10.44,2.17c-4.18-2.38-9.03-3.68-13.31-3.68
				c-6.9,0-11.11,3.28-11.11,8.3c0,3.39,2.34,6.2,7.02,8.54l8.54,3.74c4.8,1.99,8.3,3.51,10.53,4.56
				c9.83,4.8,14.74,11.93,14.74,21.52c0,7.72-2.93,14.04-8.77,18.95c-5.85,4.91-13.45,7.37-22.93,7.37c-10.81,0-20.79-3.7-28-10.56
				C274.08-1020.07,273.92-1024.78,276.54-1027.95z"/>
			<path class="st0" d="M361.61-1094.52L361.61-1094.52c4.81,0,8.71,3.9,8.71,8.71v69.01c0,4.81-3.9,8.71-8.71,8.71h0
				c-4.81,0-8.71-3.9-8.71-8.71v-69.01C352.89-1090.62,356.79-1094.52,361.61-1094.52z"/>
			<path class="st0" d="M399.56-1019.31c-8.42-8.42-12.63-19.07-12.63-31.93c0-12.98,4.33-23.74,13.1-32.17
				c8.77-8.42,19.65-12.63,32.63-12.63c10.2,0,19.84,3.02,27.35,7.86c4.34,2.8,5.01,8.9,1.52,12.71l0,0
				c-2.83,3.09-7.46,3.57-10.97,1.28c-5.23-3.4-11.19-5.13-17.9-5.13c-8.07,0-14.74,2.69-20,7.95c-5.26,5.26-7.95,11.93-7.95,20
				c0,7.84,2.57,14.5,7.72,19.88c5.26,5.38,11.93,8.07,20,8.07c7.04,0,14-2.35,19.33-6.05c2.45-1.71,3.83-4.58,3.83-7.56v-7.44
				h-16.32c-4.17,0-7.54-3.38-7.54-7.54l0,0c0-4.17,3.38-7.55,7.54-7.55h25.08c3.88,0,7.03,3.15,7.03,7.03v21.63
				c0,4.64-1.98,9.12-5.57,12.06c-9.78,8.02-21.04,12.03-33.85,12.03C418.86-1006.8,408.1-1011.01,399.56-1019.31z"/>
			<path class="st0" d="M488.92-1016.74v-69.13c0-4.78,3.88-8.66,8.66-8.66h0c4.78,0,8.66,3.88,8.66,8.66v25.85h36.26v-25.85
				c0-4.78,3.88-8.66,8.66-8.66l0,0c4.78,0,8.66,3.88,8.66,8.66v69.13c0,4.78-3.88,8.66-8.66,8.66l0,0c-4.78,0-8.66-3.88-8.66-8.66
				v-26.55h-36.26v26.55c0,4.78-3.88,8.66-8.66,8.66h0C492.8-1008.08,488.92-1011.96,488.92-1016.74z"/>
			<path class="st0" d="M598.05-1077.8h-16.32c-4.62,0-8.36-3.74-8.36-8.36l0,0c0-4.62,3.74-8.36,8.36-8.36h50.18
				c4.62,0,8.36,3.74,8.36,8.36l0,0c0,4.62-3.74,8.36-8.36,8.36H615.6v60.94c0,4.85-3.93,8.77-8.77,8.77h0
				c-4.85,0-8.77-3.93-8.77-8.77V-1077.8z"/>
			<path class="st0" d="M649.54-1027.95L649.54-1027.95c2.79-3.39,7.78-3.84,11.19-1.08c5.01,4.07,11.11,6.21,17.45,6.21
				c7.13,0,12.4-3.74,12.4-9.24c0-3.51-2.57-6.55-7.84-9.01c-1.17-0.58-3.98-1.64-8.54-3.39c-4.44-1.76-7.84-3.39-10.18-4.68
				c-9.13-5.26-13.69-12.4-13.69-21.52c0-7.25,2.69-13.22,8.19-18.02c5.5-4.79,12.63-7.25,21.29-7.25c8.25,0,15.56,2.09,21.92,6.3
				c3.82,2.53,4.82,7.7,2.11,11.4l-0.05,0.07c-2.41,3.29-6.89,4.19-10.44,2.17c-4.18-2.38-9.03-3.68-13.31-3.68
				c-6.9,0-11.11,3.28-11.11,8.3c0,3.39,2.34,6.2,7.02,8.54l8.54,3.74c4.8,1.99,8.3,3.51,10.53,4.56
				c9.83,4.8,14.74,11.93,14.74,21.52c0,7.72-2.93,14.04-8.77,18.95c-5.85,4.91-13.45,7.37-22.93,7.37c-10.81,0-20.79-3.7-28-10.56
				C647.08-1020.07,646.92-1024.78,649.54-1027.95z"/>
		</g>
	</g>
</g>
<g id="Layer_2">
</g>
</svg>
