<?xml version="1.0" encoding="utf-8"?>
<!-- Generator: Adobe Illustrator 26.0.1, SVG Export Plug-In . SVG Version: 6.00 Build 0)  -->
<svg version="1.1" id="Layer_1" xmlns="http://www.w3.org/2000/svg" xmlns:xlink="http://www.w3.org/1999/xlink" x="0px" y="0px"
	 viewBox="0 0 1200 1200" style="enable-background:new 0 0 1200 1200;" xml:space="preserve">
<style type="text/css">
	.st0{fill:#42445B;}
	.st1{fill:#FFFFFF;}
	.st2{fill:url(#SVGID_1_);}
	.st3{fill:url(#SVGID_00000029016288373728714070000000022926076215826592_);}
	.st4{fill:url(#SVGID_00000013182438178716138990000009817461624315188880_);}
	.st5{fill:url(#SVGID_00000121257939623393470570000010750535501745369495_);}
	.st6{fill:url(#SVGID_00000171710201177711783400000004270323011523674544_);}
	.st7{fill:url(#SVGID_00000108306249088822844650000002853335330238532484_);}
	.st8{fill:url(#SVGID_00000123425273256055789510000017642564341264329619_);}
</style>
<rect x="2473.97" y="-15.97" class="st0" width="1231.93" height="1231.93"/>
<g>
	<g>
		<path class="st1" d="M3246.65-1979.22h-189.7c-83.35,0-150.91,67.57-150.91,150.91v3.5c0,5.53,4.48,10.01,10.01,10.01h38.91
			c5.53,0,10.01-4.48,10.01-10.01v-2.82c0-51.18,41.49-92.67,92.67-92.67h130.1c5.53,0,10.01,4.48,10.01,10.01v26.56
			c0,5.53-4.48,10.01-10.01,10.01h-107.06c-5.53,0-10.01,4.48-10.01,10.01v38.91c0,5.53,4.48,10.01,10.01,10.01h165.98
			c5.53,0,10.01-4.48,10.01-10.01v-144.4C3256.66-1974.74,3252.18-1979.22,3246.65-1979.22z"/>
		<path class="st1" d="M3246.65-1768.23h-38.91c-5.53,0-10.01,4.48-10.01,10.01v2.82c0,51.18-41.49,92.67-92.67,92.67h-130.1
			c-5.53,0-10.01-4.48-10.01-10.01v-26.56c0-5.53,4.48-10.01,10.01-10.01h107.06c5.53,0,10.01-4.48,10.01-10.01v-38.91
			c0-5.53-4.48-10.01-10.01-10.01h-165.98c-5.53,0-10.01,4.48-10.01,10.01v144.4c0,5.53,4.48,10.01,10.01,10.01h189.7
			c83.35,0,150.91-67.57,150.91-150.91v-3.5C3256.66-1763.75,3252.18-1768.23,3246.65-1768.23z"/>
	</g>
	<g>
		<path class="st1" d="M2610.41-1352.83h-9.1c-18.89,0-29.13-7.74-35.96-18.43c-2.05-3.42-4.32-7.05-4.32-8.42
			c0-0.68,0.45-1.14,1.37-1.59l18.21-9.33c0.91-0.46,1.82-1.14,2.73-1.14c0.68,0,1.37,0.46,1.82,1.59
			c4.1,9.79,10.01,13.43,16.16,13.43h9.1c8.88,0,16.39-7.51,16.39-16.39c0-12.29-12.06-16.84-24.35-22.53
			c-17.98-8.65-37.78-17.98-37.78-44.83c0-23.67,16.39-40.29,42.33-40.29h3.64c18.89,0,29.13,7.74,35.96,18.43
			c2.05,3.41,4.33,7.05,4.33,8.42c0,0.68-0.46,1.14-1.37,1.59l-18.21,9.33c-0.91,0.46-1.82,1.14-2.73,1.14
			c-0.68,0-1.37-0.46-1.82-1.59c-4.1-9.79-10.01-13.43-16.16-13.43H2607c-8.88,0-16.39,7.51-16.39,16.39
			c0,11.61,13.2,15.02,26.4,21.16c17.3,7.97,35.73,18.66,35.73,46.2C2652.74-1369.44,2636.36-1352.83,2610.41-1352.83z"/>
		<path class="st1" d="M2795.47-1355.1h-21.39c-1.59,0-2.28-0.68-2.28-2.28v-23.9c0-17.98,2.05-49.62,2.5-55.08l-0.91-0.23
			c-0.68,1.82-3.19,12.29-5.92,18.21l-18.89,42.33c-0.46,0.91-1.14,1.36-2.05,1.36h-11.61c-0.91,0-1.59-0.45-2.05-1.36l-18.89-42.33
			c-2.73-5.92-5.23-16.39-5.92-18.21l-0.91,0.23c0.45,5.46,2.5,37.1,2.5,55.08v23.9c0,1.59-0.68,2.28-2.28,2.28h-21.62
			c-1.59,0-2.28-0.68-2.28-2.28v-138.83c0-1.59,0.68-2.28,2.28-2.28h19.12c0.91,0,1.59,0.46,2.05,1.37l30.27,72.37
			c0.68,1.59,2.5,8.42,2.96,10.24h0.68c0.46-1.82,2.5-8.65,3.19-10.24l30.27-72.37c0.45-0.91,1.14-1.37,2.05-1.37h19.12
			c1.59,0,2.28,0.68,2.28,2.28v138.83C2797.74-1355.79,2797.06-1355.1,2795.47-1355.1z"/>
		<path class="st1" d="M2924.05-1355.1h-22.99c-1.14,0-2.05-0.46-2.27-1.59l-6.83-23.9c-0.23-1.14-1.14-1.37-2.28-1.37h-32.55
			c-1.14,0-2.05,0.23-2.28,1.37l-6.83,23.9c-0.23,1.14-1.14,1.59-2.28,1.59H2823c-1.59,0-2.5-0.68-2.5-1.82
			c0-0.91,0.68-2.28,1.14-4.1l41.42-135.87c0.23-1.14,1.14-1.59,2.28-1.59h16.39c1.14,0,2.05,0.46,2.28,1.59l41.42,135.87
			c0.45,1.37,1.14,3.19,1.14,4.1C2926.55-1355.79,2925.64-1355.1,2924.05-1355.1z M2883.08-1412.23l-6.6-26.63
			c-0.45-1.59-2.05-10.7-2.5-12.52h-0.68c-0.45,1.82-2.28,10.7-2.73,12.52l-6.83,26.4c-0.46,1.59-1.14,3.64-1.14,4.55
			c0,1.14,0.91,2.05,2.5,2.05h16.61c1.59,0,2.5-0.91,2.5-2.05C2884.22-1408.81,2883.54-1410.86,2883.08-1412.23z"/>
		<path class="st1" d="M3046.5-1355.1h-23.44c-0.91,0-1.82-0.68-2.05-1.59l-20.03-57.81c-0.23-0.91-0.91-1.37-1.82-1.37h-20.26
			c-1.59,0-2.28,0.68-2.28,2.28v56.21c0,1.59-0.68,2.28-2.28,2.28h-21.62c-1.59,0-2.28-0.68-2.28-2.28v-138.83
			c0-1.59,0.68-2.28,2.28-2.28h51.21c25.95,0,42.33,16.62,42.33,42.33v2.28c0,11.61-9.79,25.04-18.43,30.95
			c-0.68,0.45-0.91,0.91-0.91,1.82c0,0.68,0.46,1.82,1.14,3.64l19.57,56.9c0.45,1.59,1.14,2.96,1.14,3.64
			C3048.77-1355.79,3048.09-1355.1,3046.5-1355.1z M3020.33-1458.2c0-8.88-7.51-16.39-16.39-16.39h-25.03
			c-1.59,0-2.28,0.68-2.28,2.28v30.27c0,1.59,0.68,2.28,2.28,2.28h25.03c8.88,0,16.39-7.51,16.39-16.39V-1458.2z"/>
		<path class="st1" d="M3150.03-1474.59h-24.81c-1.59,0-2.28,0.68-2.28,2.28v114.93c0,1.59-0.68,2.28-2.28,2.28h-21.39
			c-1.59,0-2.28-0.68-2.28-2.28v-114.93c0-1.59-0.68-2.28-2.27-2.28h-24.81c-1.59,0-2.28-0.68-2.28-2.28v-19.34
			c0-1.59,0.68-2.28,2.28-2.28h80.11c1.59,0,2.28,0.68,2.28,2.28v19.34C3152.3-1475.27,3151.62-1474.59,3150.03-1474.59z"/>
		<path class="st1" d="M3320.01-1491.66l-29.13,134.74c-0.23,1.14-1.14,1.82-2.28,1.82h-12.29c-1.14,0-2.05-0.46-2.28-1.59
			l-23.67-80.57c-0.45-1.59-1.82-8.19-2.27-10.01h-0.91c-0.46,1.82-2.05,8.42-2.5,10.01l-23.67,80.57
			c-0.23,1.14-1.14,1.59-2.28,1.59h-12.29c-1.14,0-2.05-0.68-2.28-1.82l-29.13-134.51c-0.45-2.05-0.91-4.32-0.91-5.24
			c0-1.36,0.68-1.82,2.27-1.82h17.3c1.14,0,2.05,0.68,2.28,1.82l16.39,85.35c0.23,1.59,1.82,8.65,2.28,10.47h1.14
			c0.46-1.82,2.05-8.42,2.5-10.24l23.44-86.26c0.23-1.14,1.14-1.59,2.28-1.59h7.05c1.14,0,2.05,0.46,2.28,1.59l23.44,86.26
			c0.46,1.82,2.05,8.42,2.5,10.24h1.14c0.46-1.82,1.82-8.42,2.28-10.47l16.39-85.35c0.23-1.14,1.14-1.82,2.28-1.82h17.3
			c1.59,0,2.28,0.46,2.28,1.82C3320.93-1495.53,3320.24-1493.25,3320.01-1491.66z"/>
		<path class="st1" d="M3424.71-1355.1h-17.07c-1.14,0-2.05-0.46-2.28-1.59l-8.42-30.04c-0.23-1.14-1.14-1.37-2.28-1.37h-36.87
			c-1.14,0-2.05,0.23-2.28,1.37l-8.42,30.04c-0.23,1.14-1.14,1.59-2.28,1.59h-17.07c-1.6,0-2.51-0.68-2.51-1.82
			c0-0.91,1.14-4.33,2.28-7.74l40.29-132.23c0.23-1.14,1.14-1.59,2.28-1.59h12.29c1.14,0,2.05,0.46,2.28,1.59l40.51,132.91
			c0.91,2.73,2.05,6.14,2.05,7.06C3427.22-1355.79,3426.31-1355.1,3424.71-1355.1z M3389.21-1413.59l-9.79-38.46
			c-0.46-1.82-2.28-8.19-2.73-10.02h-0.91c-0.45,1.82-2.28,8.65-2.73,10.24l-9.79,37.33c-0.68,2.73-1.59,5.01-1.59,6.14
			c0,1.14,0.91,2.05,2.5,2.05h23.9c1.59,0,2.51-0.91,2.51-2.05C3390.58-1409.27,3389.89-1411.09,3389.21-1413.59z"/>
		<path class="st1" d="M3521.89-1492.11l-36.42,68.05c-1.14,2.28-1.59,4.33-1.59,7.05v59.63c0,1.59-0.68,2.28-2.28,2.28h-15.93
			c-1.59,0-2.28-0.68-2.28-2.28v-59.86c0-2.73-0.45-4.78-1.59-6.83l-37.1-69.19c-0.68-1.37-1.37-2.5-1.37-3.42
			c0-1.14,0.91-1.82,2.5-1.82h18.66c0.91,0,1.59,0.68,2.05,1.37l25.04,51.89c0.46,1.14,1.37,1.82,2.05,1.82s1.59-0.68,2.05-1.82
			l25.04-51.89c0.46-0.68,1.14-1.37,2.05-1.37h18.66c1.59,0,2.5,0.68,2.5,1.82C3523.94-1495.53,3523.03-1494.39,3521.89-1492.11z"/>
		<path class="st1" d="M3616.57-1355.1h-81.02c-1.59,0-2.28-0.68-2.28-1.82c0-0.91,0.91-2.73,2.05-5.46l50.07-111.75
			c0.91-1.82,1.59-3.42,1.59-4.33c0-1.14-0.68-1.82-2.28-1.82h-45.52c-1.59,0-2.28-0.68-2.28-2.28v-13.66
			c0-1.59,0.68-2.28,2.28-2.28h76.24c1.59,0,2.28,0.68,2.28,1.82c0,1.14-0.91,2.96-2.05,5.46l-50.07,111.07
			c-1.14,2.73-1.82,3.87-1.82,5.01c0,1.14,0.68,1.82,2.28,1.82h50.53c1.59,0,2.28,0.68,2.28,2.28v13.66
			C3618.85-1355.79,3618.16-1355.1,3616.57-1355.1z"/>
	</g>
</g>
<g>
	<g>
		<path class="st0" d="M2002.87-1979.22h-189.7c-83.35,0-150.91,67.57-150.91,150.91v3.5c0,5.53,4.48,10.01,10.01,10.01h38.91
			c5.53,0,10.01-4.48,10.01-10.01v-2.82c0-51.18,41.49-92.67,92.67-92.67h130.1c5.53,0,10.01,4.48,10.01,10.01v26.56
			c0,5.53-4.48,10.01-10.01,10.01h-107.06c-5.53,0-10.01,4.48-10.01,10.01v38.91c0,5.53,4.48,10.01,10.01,10.01h165.98
			c5.53,0,10.01-4.48,10.01-10.01v-144.4C2012.88-1974.74,2008.4-1979.22,2002.87-1979.22z"/>
		<path class="st0" d="M2002.87-1768.23h-38.91c-5.53,0-10.01,4.48-10.01,10.01v2.82c0,51.18-41.49,92.67-92.67,92.67h-130.1
			c-5.53,0-10.01-4.48-10.01-10.01v-26.56c0-5.53,4.48-10.01,10.01-10.01h107.06c5.53,0,10.01-4.48,10.01-10.01v-38.91
			c0-5.53-4.48-10.01-10.01-10.01h-165.98c-5.53,0-10.01,4.48-10.01,10.01v144.4c0,5.53,4.48,10.01,10.01,10.01h189.7
			c83.35,0,150.91-67.57,150.91-150.91v-3.5C2012.88-1763.75,2008.4-1768.23,2002.87-1768.23z"/>
	</g>
	<g>
		<path class="st0" d="M1366.63-1352.83h-9.1c-18.89,0-29.13-7.74-35.96-18.43c-2.05-3.42-4.32-7.05-4.32-8.42
			c0-0.68,0.45-1.14,1.37-1.59l18.21-9.33c0.91-0.46,1.82-1.14,2.73-1.14c0.68,0,1.37,0.46,1.82,1.59
			c4.1,9.79,10.01,13.43,16.16,13.43h9.1c8.88,0,16.39-7.51,16.39-16.39c0-12.29-12.06-16.84-24.35-22.53
			c-17.98-8.65-37.78-17.98-37.78-44.83c0-23.67,16.39-40.29,42.33-40.29h3.64c18.89,0,29.13,7.74,35.96,18.43
			c2.05,3.41,4.33,7.05,4.33,8.42c0,0.68-0.45,1.14-1.37,1.59l-18.21,9.33c-0.91,0.46-1.82,1.14-2.73,1.14
			c-0.68,0-1.37-0.46-1.82-1.59c-4.1-9.79-10.01-13.43-16.16-13.43h-3.64c-8.88,0-16.39,7.51-16.39,16.39
			c0,11.61,13.2,15.02,26.4,21.16c17.3,7.97,35.73,18.66,35.73,46.2C1408.96-1369.44,1392.58-1352.83,1366.63-1352.83z"/>
		<path class="st0" d="M1551.68-1355.1h-21.39c-1.59,0-2.28-0.68-2.28-2.28v-23.9c0-17.98,2.05-49.62,2.5-55.08l-0.91-0.23
			c-0.68,1.82-3.19,12.29-5.92,18.21l-18.89,42.33c-0.46,0.91-1.14,1.36-2.05,1.36h-11.61c-0.91,0-1.59-0.45-2.05-1.36l-18.89-42.33
			c-2.73-5.92-5.23-16.39-5.92-18.21l-0.91,0.23c0.45,5.46,2.5,37.1,2.5,55.08v23.9c0,1.59-0.68,2.28-2.28,2.28h-21.62
			c-1.59,0-2.28-0.68-2.28-2.28v-138.83c0-1.59,0.68-2.28,2.28-2.28h19.12c0.91,0,1.59,0.46,2.05,1.37l30.27,72.37
			c0.68,1.59,2.5,8.42,2.96,10.24h0.68c0.46-1.82,2.5-8.65,3.19-10.24l30.27-72.37c0.45-0.91,1.14-1.37,2.05-1.37h19.12
			c1.59,0,2.28,0.68,2.28,2.28v138.83C1553.96-1355.79,1553.28-1355.1,1551.68-1355.1z"/>
		<path class="st0" d="M1680.27-1355.1h-22.99c-1.14,0-2.05-0.46-2.27-1.59l-6.83-23.9c-0.23-1.14-1.14-1.37-2.28-1.37h-32.55
			c-1.14,0-2.05,0.23-2.28,1.37l-6.83,23.9c-0.23,1.14-1.14,1.59-2.28,1.59h-22.76c-1.59,0-2.5-0.68-2.5-1.82
			c0-0.91,0.68-2.28,1.14-4.1l41.42-135.87c0.23-1.14,1.14-1.59,2.28-1.59h16.39c1.14,0,2.05,0.46,2.28,1.59l41.42,135.87
			c0.45,1.37,1.14,3.19,1.14,4.1C1682.77-1355.79,1681.86-1355.1,1680.27-1355.1z M1639.3-1412.23l-6.6-26.63
			c-0.45-1.59-2.05-10.7-2.5-12.52h-0.68c-0.45,1.82-2.28,10.7-2.73,12.52l-6.83,26.4c-0.45,1.59-1.14,3.64-1.14,4.55
			c0,1.14,0.91,2.05,2.5,2.05h16.61c1.59,0,2.5-0.91,2.5-2.05C1640.44-1408.81,1639.76-1410.86,1639.3-1412.23z"/>
		<path class="st0" d="M1802.72-1355.1h-23.44c-0.91,0-1.82-0.68-2.05-1.59l-20.03-57.81c-0.23-0.91-0.91-1.37-1.82-1.37h-20.26
			c-1.59,0-2.28,0.68-2.28,2.28v56.21c0,1.59-0.68,2.28-2.28,2.28h-21.62c-1.59,0-2.28-0.68-2.28-2.28v-138.83
			c0-1.59,0.68-2.28,2.28-2.28h51.21c25.95,0,42.33,16.62,42.33,42.33v2.28c0,11.61-9.79,25.04-18.43,30.95
			c-0.68,0.45-0.91,0.91-0.91,1.82c0,0.68,0.45,1.82,1.14,3.64l19.57,56.9c0.45,1.59,1.14,2.96,1.14,3.64
			C1804.99-1355.79,1804.31-1355.1,1802.72-1355.1z M1776.55-1458.2c0-8.88-7.51-16.39-16.39-16.39h-25.03
			c-1.59,0-2.28,0.68-2.28,2.28v30.27c0,1.59,0.68,2.28,2.28,2.28h25.03c8.88,0,16.39-7.51,16.39-16.39V-1458.2z"/>
		<path class="st0" d="M1906.25-1474.59h-24.81c-1.59,0-2.28,0.68-2.28,2.28v114.93c0,1.59-0.68,2.28-2.28,2.28h-21.39
			c-1.59,0-2.28-0.68-2.28-2.28v-114.93c0-1.59-0.68-2.28-2.27-2.28h-24.81c-1.59,0-2.28-0.68-2.28-2.28v-19.34
			c0-1.59,0.68-2.28,2.28-2.28h80.11c1.59,0,2.28,0.68,2.28,2.28v19.34C1908.52-1475.27,1907.84-1474.59,1906.25-1474.59z"/>
		<path class="st0" d="M2076.23-1491.66l-29.13,134.74c-0.23,1.14-1.14,1.82-2.28,1.82h-12.29c-1.14,0-2.05-0.46-2.28-1.59
			l-23.67-80.57c-0.45-1.59-1.82-8.19-2.27-10.01h-0.91c-0.45,1.82-2.05,8.42-2.5,10.01l-23.67,80.57
			c-0.23,1.14-1.14,1.59-2.28,1.59h-12.29c-1.14,0-2.05-0.68-2.28-1.82l-29.13-134.51c-0.45-2.05-0.91-4.32-0.91-5.24
			c0-1.36,0.68-1.82,2.27-1.82h17.3c1.14,0,2.05,0.68,2.28,1.82l16.39,85.35c0.23,1.59,1.82,8.65,2.28,10.47h1.14
			c0.45-1.82,2.05-8.42,2.5-10.24l23.44-86.26c0.23-1.14,1.14-1.59,2.28-1.59h7.05c1.14,0,2.05,0.46,2.28,1.59l23.44,86.26
			c0.46,1.82,2.05,8.42,2.5,10.24h1.14c0.45-1.82,1.82-8.42,2.28-10.47l16.39-85.35c0.23-1.14,1.14-1.82,2.28-1.82h17.3
			c1.59,0,2.28,0.46,2.28,1.82C2077.15-1495.53,2076.46-1493.25,2076.23-1491.66z"/>
		<path class="st0" d="M2180.93-1355.1h-17.07c-1.14,0-2.05-0.46-2.28-1.59l-8.42-30.04c-0.23-1.14-1.14-1.37-2.28-1.37h-36.87
			c-1.14,0-2.05,0.23-2.28,1.37l-8.42,30.04c-0.23,1.14-1.14,1.59-2.28,1.59h-17.07c-1.6,0-2.51-0.68-2.51-1.82
			c0-0.91,1.14-4.33,2.28-7.74l40.29-132.23c0.23-1.14,1.14-1.59,2.28-1.59h12.29c1.14,0,2.05,0.46,2.28,1.59l40.51,132.91
			c0.91,2.73,2.05,6.14,2.05,7.06C2183.44-1355.79,2182.53-1355.1,2180.93-1355.1z M2145.43-1413.59l-9.79-38.46
			c-0.46-1.82-2.28-8.19-2.73-10.02H2132c-0.45,1.82-2.28,8.65-2.73,10.24l-9.79,37.33c-0.68,2.73-1.59,5.01-1.59,6.14
			c0,1.14,0.91,2.05,2.5,2.05h23.9c1.59,0,2.51-0.91,2.51-2.05C2146.8-1409.27,2146.11-1411.09,2145.43-1413.59z"/>
		<path class="st0" d="M2278.11-1492.11l-36.42,68.05c-1.14,2.28-1.59,4.33-1.59,7.05v59.63c0,1.59-0.68,2.28-2.28,2.28h-15.93
			c-1.59,0-2.28-0.68-2.28-2.28v-59.86c0-2.73-0.45-4.78-1.59-6.83l-37.1-69.19c-0.68-1.37-1.37-2.5-1.37-3.42
			c0-1.14,0.91-1.82,2.5-1.82h18.66c0.91,0,1.59,0.68,2.05,1.37l25.04,51.89c0.46,1.14,1.37,1.82,2.05,1.82s1.59-0.68,2.05-1.82
			l25.04-51.89c0.46-0.68,1.14-1.37,2.05-1.37h18.66c1.59,0,2.5,0.68,2.5,1.82C2280.16-1495.53,2279.25-1494.39,2278.11-1492.11z"/>
		<path class="st0" d="M2372.79-1355.1h-81.02c-1.59,0-2.28-0.68-2.28-1.82c0-0.91,0.91-2.73,2.05-5.46l50.07-111.75
			c0.91-1.82,1.59-3.42,1.59-4.33c0-1.14-0.68-1.82-2.28-1.82h-45.52c-1.59,0-2.28-0.68-2.28-2.28v-13.66
			c0-1.59,0.68-2.28,2.28-2.28h76.24c1.59,0,2.28,0.68,2.28,1.82c0,1.14-0.91,2.96-2.05,5.46l-50.07,111.07
			c-1.14,2.73-1.82,3.87-1.82,5.01c0,1.14,0.68,1.82,2.28,1.82h50.53c1.59,0,2.28,0.68,2.28,2.28v13.66
			C2375.07-1355.79,2374.38-1355.1,2372.79-1355.1z"/>
	</g>
</g>
<g>
	<g>
		<path class="st1" d="M3520.91-1136.32h-494.58c-217.3,0-393.46,176.16-393.46,393.46v9.11c0,14.41,11.68,26.09,26.09,26.09h101.44
			c14.41,0,26.09-11.68,26.09-26.09v-7.36c0-133.43,108.17-241.6,241.6-241.6h339.2c14.41,0,26.09,11.68,26.09,26.09v69.25
			c0,14.41-11.68,26.09-26.09,26.09h-279.13c-14.41,0-26.09,11.68-26.09,26.09v101.44c0,14.41,11.68,26.09,26.09,26.09h432.75
			c14.41,0,26.09-11.68,26.09-26.09v-376.49C3546.99-1124.64,3535.32-1136.32,3520.91-1136.32z"/>
		<path class="st1" d="M3520.91-586.23h-101.44c-14.41,0-26.09,11.68-26.09,26.09v7.36c0,133.43-108.17,241.6-241.6,241.6h-339.2
			c-14.41,0-26.09-11.68-26.09-26.09v-69.25c0-14.41,11.68-26.09,26.09-26.09h279.13c14.41,0,26.09-11.68,26.09-26.09v-101.44
			c0-14.41-11.68-26.09-26.09-26.09h-432.75c-14.41,0-26.09,11.68-26.09,26.09v376.49c0,14.41,11.68,26.09,26.09,26.09h494.58
			c217.3,0,393.46-176.16,393.46-393.46v-9.11C3546.99-574.55,3535.32-586.23,3520.91-586.23z"/>
	</g>
</g>
<g>
	<g>
		<path class="st0" d="M2277.13-1136.32h-494.58c-217.3,0-393.46,176.16-393.46,393.46v9.11c0,14.41,11.68,26.09,26.09,26.09h101.44
			c14.41,0,26.09-11.68,26.09-26.09v-7.36c0-133.43,108.17-241.6,241.6-241.6h339.2c14.41,0,26.09,11.68,26.09,26.09v69.25
			c0,14.41-11.68,26.09-26.09,26.09h-279.13c-14.41,0-26.09,11.68-26.09,26.09v101.44c0,14.41,11.68,26.09,26.09,26.09h432.75
			c14.41,0,26.09-11.68,26.09-26.09v-376.49C2303.21-1124.64,2291.53-1136.32,2277.13-1136.32z"/>
		<path class="st0" d="M2277.13-586.23h-101.44c-14.41,0-26.09,11.68-26.09,26.09v7.36c0,133.43-108.17,241.6-241.6,241.6h-339.2
			c-14.41,0-26.09-11.68-26.09-26.09v-69.25c0-14.41,11.68-26.09,26.09-26.09h279.13c14.41,0,26.09-11.68,26.09-26.09v-101.44
			c0-14.41-11.68-26.09-26.09-26.09h-432.75c-14.41,0-26.09,11.68-26.09,26.09v376.49c0,14.41,11.68,26.09,26.09,26.09h494.58
			c217.3,0,393.46-176.16,393.46-393.46v-9.11C2303.21-574.55,2291.53-586.23,2277.13-586.23z"/>
	</g>
</g>
<g>
	<g>
		<path class="st1" d="M3387.93,251.63h-341.97c-150.25,0-272.05,121.8-272.05,272.05v6.3c0,9.96,8.08,18.04,18.04,18.04h70.14
			c9.96,0,18.04-8.08,18.04-18.04v-5.09c0-92.26,74.79-167.05,167.05-167.05h234.54c9.96,0,18.04,8.08,18.04,18.04v47.88
			c0,9.96-8.08,18.04-18.04,18.04h-193c-9.96,0-18.04,8.08-18.04,18.04v70.14c0,9.96,8.08,18.04,18.04,18.04h299.22
			c9.96,0,18.04-8.08,18.04-18.04V269.66C3405.97,259.7,3397.89,251.63,3387.93,251.63z"/>
		<path class="st1" d="M3387.93,631.98h-70.14c-9.96,0-18.04,8.08-18.04,18.04v5.09c0,92.26-74.79,167.05-167.05,167.05h-234.54
			c-9.96,0-18.04-8.08-18.04-18.04v-47.88c0-9.96,8.08-18.04,18.04-18.04h193c9.96,0,18.04-8.08,18.04-18.04v-70.14
			c0-9.96-8.08-18.04-18.04-18.04h-299.22c-9.96,0-18.04,8.08-18.04,18.04v260.32c0,9.96,8.08,18.04,18.04,18.04h341.97
			c150.25,0,272.05-121.8,272.05-272.05v-6.3C3405.97,640.05,3397.89,631.98,3387.93,631.98z"/>
	</g>
</g>
<linearGradient id="SVGID_1_" gradientUnits="userSpaceOnUse" x1="2450.6772" y1="-13.9938" x2="1238.5454" y2="1217.1271">
	<stop  offset="0" style="stop-color:#FF7F00"/>
	<stop  offset="0.2715" style="stop-color:#FF5F00"/>
	<stop  offset="0.5452" style="stop-color:#FF4600"/>
	<stop  offset="0.7958" style="stop-color:#FF3700"/>
	<stop  offset="1" style="stop-color:#FF3200"/>
</linearGradient>
<rect x="1230.19" y="-15.97" class="st2" width="1231.93" height="1231.93"/>
<g>
	<g>
		<path class="st1" d="M2144.15,251.63h-341.97c-150.25,0-272.05,121.8-272.05,272.05v6.3c0,9.96,8.08,18.04,18.04,18.04h70.14
			c9.96,0,18.04-8.08,18.04-18.04v-5.09c0-92.26,74.79-167.05,167.05-167.05h234.54c9.96,0,18.04,8.08,18.04,18.04v47.88
			c0,9.96-8.08,18.04-18.04,18.04h-193c-9.96,0-18.04,8.08-18.04,18.04v70.14c0,9.96,8.08,18.04,18.04,18.04h299.22
			c9.96,0,18.04-8.08,18.04-18.04V269.66C2162.19,259.7,2154.11,251.63,2144.15,251.63z"/>
		<path class="st1" d="M2144.15,631.98H2074c-9.96,0-18.04,8.08-18.04,18.04v5.09c0,92.26-74.79,167.05-167.05,167.05h-234.54
			c-9.96,0-18.04-8.08-18.04-18.04v-47.88c0-9.96,8.08-18.04,18.04-18.04h193c9.96,0,18.04-8.08,18.04-18.04v-70.14
			c0-9.96-8.08-18.04-18.04-18.04h-299.22c-9.96,0-18.04,8.08-18.04,18.04v260.32c0,9.96,8.08,18.04,18.04,18.04h341.97
			c150.25,0,272.05-121.8,272.05-272.05v-6.3C2162.19,640.05,2154.11,631.98,2144.15,631.98z"/>
	</g>
</g>
<rect x="-15.97" y="-15.97" class="st1" width="1231.93" height="1231.93"/>
<g>
	<g>
		
			<linearGradient id="SVGID_00000093160598848024430860000009628647249302682011_" gradientUnits="userSpaceOnUse" x1="921.5485" y1="299.8052" x2="313.7094" y2="573.7609">
			<stop  offset="0" style="stop-color:#FF7F00"/>
			<stop  offset="0.2715" style="stop-color:#FF5F00"/>
			<stop  offset="0.5452" style="stop-color:#FF4600"/>
			<stop  offset="0.7958" style="stop-color:#FF3700"/>
			<stop  offset="1" style="stop-color:#FF3200"/>
		</linearGradient>
		<path style="fill:url(#SVGID_00000093160598848024430860000009628647249302682011_);" d="M897.99,251.63H556.02
			c-150.25,0-272.05,121.8-272.05,272.05v6.3c0,9.96,8.08,18.04,18.04,18.04h70.14c9.96,0,18.04-8.08,18.04-18.04v-5.09
			c0-92.26,74.79-167.05,167.05-167.05h234.54c9.96,0,18.04,8.08,18.04,18.04v47.88c0,9.96-8.08,18.04-18.04,18.04h-193
			c-9.96,0-18.04,8.08-18.04,18.04v70.14c0,9.96,8.08,18.04,18.04,18.04h299.22c9.96,0,18.04-8.08,18.04-18.04V269.66
			C916.03,259.7,907.96,251.63,897.99,251.63z"/>
		
			<linearGradient id="SVGID_00000018950180487555921500000008241055577082865333_" gradientUnits="userSpaceOnUse" x1="290.511" y1="646.8928" x2="876.9473" y2="899.4456">
			<stop  offset="0" style="stop-color:#FF7F00"/>
			<stop  offset="0.2715" style="stop-color:#FF5F00"/>
			<stop  offset="0.5452" style="stop-color:#FF4600"/>
			<stop  offset="0.7958" style="stop-color:#FF3700"/>
			<stop  offset="1" style="stop-color:#FF3200"/>
		</linearGradient>
		<path style="fill:url(#SVGID_00000018950180487555921500000008241055577082865333_);" d="M897.99,631.98h-70.14
			c-9.96,0-18.04,8.08-18.04,18.04v5.09c0,92.26-74.79,167.05-167.05,167.05H408.22c-9.96,0-18.04-8.08-18.04-18.04v-47.88
			c0-9.96,8.08-18.04,18.04-18.04h193c9.96,0,18.04-8.08,18.04-18.04v-70.14c0-9.96-8.08-18.04-18.04-18.04H302.01
			c-9.96,0-18.04,8.08-18.04,18.04v260.32c0,9.96,8.08,18.04,18.04,18.04h341.97c150.25,0,272.05-121.8,272.05-272.05v-6.3
			C916.03,640.05,907.96,631.98,897.99,631.98z"/>
	</g>
</g>
<g>
	<g>
		
			<linearGradient id="SVGID_00000162333519659658236790000003419901043565725070_" gradientUnits="userSpaceOnUse" x1="1065.0403" y1="-1066.6399" x2="185.9516" y2="-670.4309">
			<stop  offset="0" style="stop-color:#FF7F00"/>
			<stop  offset="0.2715" style="stop-color:#FF5F00"/>
			<stop  offset="0.5452" style="stop-color:#FF4600"/>
			<stop  offset="0.7958" style="stop-color:#FF3700"/>
			<stop  offset="1" style="stop-color:#FF3200"/>
		</linearGradient>
		<path style="fill:url(#SVGID_00000162333519659658236790000003419901043565725070_);" d="M1030.97-1136.32H536.4
			c-217.3,0-393.46,176.16-393.46,393.46v9.11c0,14.41,11.68,26.09,26.09,26.09h101.44c14.41,0,26.09-11.68,26.09-26.09v-7.36
			c0-133.43,108.17-241.6,241.6-241.6h339.2c14.41,0,26.09,11.68,26.09,26.09v69.25c0,14.41-11.68,26.09-26.09,26.09H598.22
			c-14.41,0-26.09,11.68-26.09,26.09v101.44c0,14.41,11.68,26.09,26.09,26.09h432.75c14.41,0,26.09-11.68,26.09-26.09v-376.49
			C1057.06-1124.64,1045.38-1136.32,1030.97-1136.32z"/>
		
			<linearGradient id="SVGID_00000077294924882170778330000016381440830554515639_" gradientUnits="userSpaceOnUse" x1="152.4008" y1="-564.6638" x2="1000.5356" y2="-199.4086">
			<stop  offset="0" style="stop-color:#FF7F00"/>
			<stop  offset="0.2715" style="stop-color:#FF5F00"/>
			<stop  offset="0.5452" style="stop-color:#FF4600"/>
			<stop  offset="0.7958" style="stop-color:#FF3700"/>
			<stop  offset="1" style="stop-color:#FF3200"/>
		</linearGradient>
		<path style="fill:url(#SVGID_00000077294924882170778330000016381440830554515639_);" d="M1030.97-586.23H929.53
			c-14.41,0-26.09,11.68-26.09,26.09v7.36c0,133.43-108.17,241.6-241.6,241.6h-339.2c-14.41,0-26.09-11.68-26.09-26.09v-69.25
			c0-14.41,11.68-26.09,26.09-26.09h279.13c14.41,0,26.09-11.68,26.09-26.09v-101.44c0-14.41-11.68-26.09-26.09-26.09H169.03
			c-14.41,0-26.09,11.68-26.09,26.09v376.49c0,14.41,11.68,26.09,26.09,26.09H663.6c217.3,0,393.46-176.16,393.46-393.46v-9.11
			C1057.06-574.55,1045.38-586.23,1030.97-586.23z"/>
	</g>
</g>
<g>
	<g>
		
			<linearGradient id="SVGID_00000090288606051259954070000013332602276263184564_" gradientUnits="userSpaceOnUse" x1="769.7826" y1="-1952.4912" x2="432.6058" y2="-1800.5242">
			<stop  offset="0" style="stop-color:#FF7F00"/>
			<stop  offset="0.2715" style="stop-color:#FF5F00"/>
			<stop  offset="0.5452" style="stop-color:#FF4600"/>
			<stop  offset="0.7958" style="stop-color:#FF3700"/>
			<stop  offset="1" style="stop-color:#FF3200"/>
		</linearGradient>
		<path style="fill:url(#SVGID_00000090288606051259954070000013332602276263184564_);" d="M756.72-1979.22h-189.7
			c-83.35,0-150.91,67.57-150.91,150.91v3.5c0,5.53,4.48,10.01,10.01,10.01h38.91c5.53,0,10.01-4.48,10.01-10.01v-2.82
			c0-51.18,41.49-92.67,92.67-92.67h130.1c5.53,0,10.01,4.48,10.01,10.01v26.56c0,5.53-4.48,10.01-10.01,10.01H590.73
			c-5.53,0-10.01,4.48-10.01,10.01v38.91c0,5.53,4.48,10.01,10.01,10.01h165.98c5.53,0,10.01-4.48,10.01-10.01v-144.4
			C766.72-1974.74,762.24-1979.22,756.72-1979.22z"/>
		
			<linearGradient id="SVGID_00000102531049921759075880000005270711421562505634_" gradientUnits="userSpaceOnUse" x1="419.7373" y1="-1759.9569" x2="745.0417" y2="-1619.8623">
			<stop  offset="0" style="stop-color:#FF7F00"/>
			<stop  offset="0.2715" style="stop-color:#FF5F00"/>
			<stop  offset="0.5452" style="stop-color:#FF4600"/>
			<stop  offset="0.7958" style="stop-color:#FF3700"/>
			<stop  offset="1" style="stop-color:#FF3200"/>
		</linearGradient>
		<path style="fill:url(#SVGID_00000102531049921759075880000005270711421562505634_);" d="M756.72-1768.23h-38.91
			c-5.53,0-10.01,4.48-10.01,10.01v2.82c0,51.18-41.49,92.67-92.67,92.67h-130.1c-5.53,0-10.01-4.48-10.01-10.01v-26.56
			c0-5.53,4.48-10.01,10.01-10.01H592.1c5.53,0,10.01-4.48,10.01-10.01v-38.91c0-5.53-4.48-10.01-10.01-10.01H426.11
			c-5.53,0-10.01,4.48-10.01,10.01v144.4c0,5.53,4.48,10.01,10.01,10.01h189.7c83.35,0,150.91-67.57,150.91-150.91v-3.5
			C766.72-1763.75,762.24-1768.23,756.72-1768.23z"/>
	</g>
	<g>
		<path class="st0" d="M120.48-1352.83h-9.1c-18.89,0-29.13-7.74-35.96-18.43c-2.05-3.42-4.32-7.05-4.32-8.42
			c0-0.68,0.45-1.14,1.37-1.59l18.21-9.33c0.91-0.46,1.82-1.14,2.73-1.14c0.68,0,1.37,0.46,1.82,1.59
			c4.1,9.79,10.01,13.43,16.16,13.43h9.1c8.88,0,16.39-7.51,16.39-16.39c0-12.29-12.06-16.84-24.35-22.53
			c-17.98-8.65-37.78-17.98-37.78-44.83c0-23.67,16.39-40.29,42.33-40.29h3.64c18.89,0,29.13,7.74,35.96,18.43
			c2.05,3.41,4.33,7.05,4.33,8.42c0,0.68-0.45,1.14-1.37,1.59l-18.21,9.33c-0.91,0.46-1.82,1.14-2.73,1.14
			c-0.68,0-1.37-0.46-1.82-1.59c-4.1-9.79-10.01-13.43-16.16-13.43h-3.64c-8.88,0-16.39,7.51-16.39,16.39
			c0,11.61,13.2,15.02,26.4,21.16c17.3,7.97,35.73,18.66,35.73,46.2C162.81-1369.44,146.42-1352.83,120.48-1352.83z"/>
		<path class="st0" d="M305.53-1355.1h-21.39c-1.59,0-2.28-0.68-2.28-2.28v-23.9c0-17.98,2.05-49.62,2.5-55.08l-0.91-0.23
			c-0.68,1.82-3.19,12.29-5.92,18.21l-18.89,42.33c-0.46,0.91-1.14,1.36-2.05,1.36h-11.61c-0.91,0-1.59-0.45-2.05-1.36l-18.89-42.33
			c-2.73-5.92-5.23-16.39-5.92-18.21l-0.91,0.23c0.45,5.46,2.5,37.1,2.5,55.08v23.9c0,1.59-0.68,2.28-2.28,2.28h-21.62
			c-1.59,0-2.28-0.68-2.28-2.28v-138.83c0-1.59,0.68-2.28,2.28-2.28h19.12c0.91,0,1.59,0.46,2.05,1.37l30.27,72.37
			c0.68,1.59,2.5,8.42,2.96,10.24h0.68c0.46-1.82,2.5-8.65,3.19-10.24l30.27-72.37c0.45-0.91,1.14-1.37,2.05-1.37h19.12
			c1.59,0,2.28,0.68,2.28,2.28v138.83C307.81-1355.79,307.12-1355.1,305.53-1355.1z"/>
		<path class="st0" d="M434.11-1355.1h-22.99c-1.14,0-2.05-0.46-2.27-1.59l-6.83-23.9c-0.23-1.14-1.14-1.37-2.28-1.37H367.2
			c-1.14,0-2.05,0.23-2.28,1.37l-6.83,23.9c-0.23,1.14-1.14,1.59-2.28,1.59h-22.76c-1.59,0-2.5-0.68-2.5-1.82
			c0-0.91,0.68-2.28,1.14-4.1l41.42-135.87c0.23-1.14,1.14-1.59,2.28-1.59h16.39c1.14,0,2.05,0.46,2.28,1.59l41.42,135.87
			c0.45,1.37,1.14,3.19,1.14,4.1C436.62-1355.79,435.71-1355.1,434.11-1355.1z M393.15-1412.23l-6.6-26.63
			c-0.45-1.59-2.05-10.7-2.5-12.52h-0.68c-0.45,1.82-2.28,10.7-2.73,12.52l-6.83,26.4c-0.45,1.59-1.14,3.64-1.14,4.55
			c0,1.14,0.91,2.05,2.5,2.05h16.61c1.59,0,2.5-0.91,2.5-2.05C394.29-1408.81,393.6-1410.86,393.15-1412.23z"/>
		<path class="st0" d="M556.56-1355.1h-23.44c-0.91,0-1.82-0.68-2.05-1.59l-20.03-57.81c-0.23-0.91-0.91-1.37-1.82-1.37h-20.26
			c-1.59,0-2.28,0.68-2.28,2.28v56.21c0,1.59-0.68,2.28-2.28,2.28H462.8c-1.59,0-2.28-0.68-2.28-2.28v-138.83
			c0-1.59,0.68-2.28,2.28-2.28h51.21c25.95,0,42.33,16.62,42.33,42.33v2.28c0,11.61-9.79,25.04-18.43,30.95
			c-0.68,0.45-0.91,0.91-0.91,1.82c0,0.68,0.45,1.82,1.14,3.64l19.57,56.9c0.45,1.59,1.14,2.96,1.14,3.64
			C558.84-1355.79,558.16-1355.1,556.56-1355.1z M530.39-1458.2c0-8.88-7.51-16.39-16.39-16.39h-25.03c-1.59,0-2.28,0.68-2.28,2.28
			v30.27c0,1.59,0.68,2.28,2.28,2.28h25.03c8.88,0,16.39-7.51,16.39-16.39V-1458.2z"/>
		<path class="st0" d="M660.09-1474.59h-24.81c-1.59,0-2.28,0.68-2.28,2.28v114.93c0,1.59-0.68,2.28-2.28,2.28h-21.39
			c-1.59,0-2.28-0.68-2.28-2.28v-114.93c0-1.59-0.68-2.28-2.27-2.28h-24.81c-1.59,0-2.28-0.68-2.28-2.28v-19.34
			c0-1.59,0.68-2.28,2.28-2.28h80.11c1.59,0,2.28,0.68,2.28,2.28v19.34C662.37-1475.27,661.69-1474.59,660.09-1474.59z"/>
		<path class="st0" d="M830.08-1491.66l-29.13,134.74c-0.23,1.14-1.14,1.82-2.28,1.82h-12.29c-1.14,0-2.05-0.46-2.28-1.59
			l-23.67-80.57c-0.45-1.59-1.82-8.19-2.27-10.01h-0.91c-0.45,1.82-2.05,8.42-2.5,10.01l-23.67,80.57
			c-0.23,1.14-1.14,1.59-2.28,1.59h-12.29c-1.14,0-2.05-0.68-2.28-1.82l-29.13-134.51c-0.45-2.05-0.91-4.32-0.91-5.24
			c0-1.36,0.68-1.82,2.27-1.82h17.3c1.14,0,2.05,0.68,2.28,1.82l16.39,85.35c0.23,1.59,1.82,8.65,2.28,10.47h1.14
			c0.45-1.82,2.05-8.42,2.5-10.24l23.44-86.26c0.23-1.14,1.14-1.59,2.28-1.59h7.05c1.14,0,2.05,0.46,2.28,1.59l23.44,86.26
			c0.46,1.82,2.05,8.42,2.5,10.24h1.14c0.45-1.82,1.82-8.42,2.28-10.47l16.39-85.35c0.23-1.14,1.14-1.82,2.28-1.82h17.3
			c1.59,0,2.28,0.46,2.28,1.82C830.99-1495.53,830.31-1493.25,830.08-1491.66z"/>
		<path class="st0" d="M934.78-1355.1h-17.07c-1.14,0-2.05-0.46-2.28-1.59l-8.42-30.04c-0.23-1.14-1.14-1.37-2.28-1.37h-36.87
			c-1.14,0-2.05,0.23-2.28,1.37l-8.42,30.04c-0.23,1.14-1.14,1.59-2.28,1.59h-17.07c-1.6,0-2.51-0.68-2.51-1.82
			c0-0.91,1.14-4.33,2.28-7.74l40.29-132.23c0.23-1.14,1.14-1.59,2.28-1.59h12.29c1.14,0,2.05,0.46,2.28,1.59l40.51,132.91
			c0.91,2.73,2.05,6.14,2.05,7.06C937.28-1355.79,936.37-1355.1,934.78-1355.1z M899.28-1413.59l-9.79-38.46
			c-0.46-1.82-2.28-8.19-2.73-10.02h-0.91c-0.45,1.82-2.28,8.65-2.73,10.24l-9.79,37.33c-0.68,2.73-1.59,5.01-1.59,6.14
			c0,1.14,0.91,2.05,2.5,2.05h23.9c1.59,0,2.51-0.91,2.51-2.05C900.64-1409.27,899.96-1411.09,899.28-1413.59z"/>
		<path class="st0" d="M1031.96-1492.11l-36.42,68.05c-1.14,2.28-1.59,4.33-1.59,7.05v59.63c0,1.59-0.68,2.28-2.28,2.28h-15.93
			c-1.59,0-2.28-0.68-2.28-2.28v-59.86c0-2.73-0.45-4.78-1.59-6.83l-37.1-69.19c-0.68-1.37-1.37-2.5-1.37-3.42
			c0-1.14,0.91-1.82,2.5-1.82h18.66c0.91,0,1.59,0.68,2.05,1.37l25.04,51.89c0.46,1.14,1.37,1.82,2.05,1.82s1.59-0.68,2.05-1.82
			l25.04-51.89c0.46-0.68,1.14-1.37,2.05-1.37h18.66c1.59,0,2.5,0.68,2.5,1.82C1034.01-1495.53,1033.1-1494.39,1031.96-1492.11z"/>
		<path class="st0" d="M1126.64-1355.1h-81.02c-1.59,0-2.28-0.68-2.28-1.82c0-0.91,0.91-2.73,2.05-5.46l50.07-111.75
			c0.91-1.82,1.59-3.42,1.59-4.33c0-1.14-0.68-1.82-2.28-1.82h-45.52c-1.59,0-2.28-0.68-2.28-2.28v-13.66
			c0-1.59,0.68-2.28,2.28-2.28h76.24c1.59,0,2.28,0.68,2.28,1.82c0,1.14-0.91,2.96-2.05,5.46l-50.07,111.07
			c-1.14,2.73-1.82,3.87-1.82,5.01c0,1.14,0.68,1.82,2.28,1.82h50.53c1.59,0,2.28,0.68,2.28,2.28v13.66
			C1128.91-1355.79,1128.23-1355.1,1126.64-1355.1z"/>
	</g>
</g>
</svg>
